<svg xmlns="http://www.w3.org/2000/svg" width="375" height="160.464" viewBox="0 0 375 160.464">
  <g id="Group_13361" data-name="Group 13361" transform="translate(-36 -308.999)">
    <path id="Intersection_16" data-name="Intersection 16" d="M2.318,160.46,0,159.3V89.2c15.52,0,34.932-.047,57.99-.212C149.7,78.94,174.216,13.9,286.764,0H317.7L227.258,160.46Z" transform="translate(36 308.999)" fill="#c3dee2" opacity="0.4"/>
    <g id="Group_12593" data-name="Group 12593" transform="translate(109.03 309.029)">
      <path id="Subtraction_25" data-name="Subtraction 25" d="M299.8,160.4H0v-.861L216.575,0H299.8V160.4Z" transform="translate(0 0)" fill="#cfdaff" opacity="0"/>
      <g id="Group_12588" data-name="Group 12588" transform="translate(216.477)">
        <rect id="Rectangle_3718" data-name="Rectangle 3718" width="85.494" height="160.405" fill="#6ca1ac"/>
        <ellipse id="Ellipse_970" data-name="Ellipse 970" cx="4.657" cy="4.657" rx="4.657" ry="4.657" transform="translate(72.04 70.889)" fill="#fff"/>
      </g>
    </g>
    <g id="Group_12592" data-name="Group 12592" transform="translate(140.845 385.239)">
      <path id="path20" d="M408.283-496.115a24.029,24.029,0,0,0-24,24,24.028,24.028,0,0,0,24,24,24.028,24.028,0,0,0,24-24A24.028,24.028,0,0,0,408.283-496.115Zm0,50.1a26.125,26.125,0,0,1-26.1-26.1,26.125,26.125,0,0,1,26.1-26.1,26.126,26.126,0,0,1,26.1,26.1,26.125,26.125,0,0,1-26.1,26.1h0" transform="translate(-382.187 530.241)" fill="#fff"/>
      <path id="path24" d="M917.694-496.115a24.028,24.028,0,0,0-24,24,24.028,24.028,0,0,0,24,24,24.028,24.028,0,0,0,24-24,24.029,24.029,0,0,0-24-24Zm0,50.1a26.125,26.125,0,0,1-26.1-26.1,26.125,26.125,0,0,1,26.1-26.1,26.126,26.126,0,0,1,26.1,26.1,26.126,26.126,0,0,1-26.1,26.1h0" transform="translate(-810.954 530.241)" fill="#fff"/>
      <path id="path28" d="M574.277-615.955l-7.894-35.193,37.534-4.129,1.381,6.014Zm-10.266-33.006,7.7,34.318-29.571-2.9Zm57.238,31.58c-6.454-6.293-9.564-16.714-9.747-17.341l-7.279-31.7h7.149a1.4,1.4,0,0,0,1.4-1.4,1.4,1.4,0,0,0-1.4-1.4h-8.9a1.4,1.4,0,0,0-1.092.526,1.4,1.4,0,0,0-.269,1.182l2.179,9.487-37.5,4.125-3.281-14.63a1.4,1.4,0,0,0-1.668-1.057,1.4,1.4,0,0,0-1.057,1.668l3.415,15.225L538.485-617.18c-.015.021-.023.044-.036.066-.025.041-.048.082-.07.125a1.307,1.307,0,0,0-.054.129c-.015.04-.028.081-.039.123a1.43,1.43,0,0,0-.03.153c0,.023-.011.044-.013.067s0,.035,0,.053a1.415,1.415,0,0,0,0,.153c0,.043,0,.085.01.127s.017.09.028.134.022.087.036.129.034.083.052.124.037.08.059.118.05.076.076.113.053.072.083.106.06.062.091.092a1.356,1.356,0,0,0,.115.1c.014.011.026.025.041.035s.054.031.082.048.05.031.076.045a1.364,1.364,0,0,0,.224.095h0a1.371,1.371,0,0,0,.252.051l.025,0,33.863,3.316a1.218,1.218,0,0,0,.126.006h.012a1.35,1.35,0,0,0,.271-.028l.021-.005h.012c.023,0,.044-.016.068-.022a1.493,1.493,0,0,0,.155-.049l.033-.013c.028-.013.054-.03.082-.045a1.3,1.3,0,0,0,.123-.07c.013-.008.026-.014.038-.023s.042-.036.064-.054.072-.059.105-.092c.015-.014.031-.026.045-.041l0,0,31.538-33.862,2.736,11.915c.005.022.01.043.017.065.132.472,3.326,11.625,10.494,18.614a1.392,1.392,0,0,0,.975.4,1.392,1.392,0,0,0,1-.422,1.4,1.4,0,0,0-.025-1.974" transform="translate(-513.535 674.51)" fill="#fff"/>
      <path id="path30" d="M996.331-652.454a20.543,20.543,0,0,1-2.678-.165,1.746,1.746,0,0,1-1.49-1.969,1.747,1.747,0,0,1,1.969-1.489c1.6.217,6.216.37,8.362-1.5a3.51,3.51,0,0,0,1.174-2.851,4.511,4.511,0,0,0-1.338-3.459c-2.247-2.14-6.557-1.956-6.6-1.953l-.089,0h-4.713a1.746,1.746,0,0,1-1.746-1.746,1.745,1.745,0,0,1,1.746-1.745H995.6c.63-.026,5.912-.144,9.124,2.9a7.926,7.926,0,0,1,2.436,6,7.037,7.037,0,0,1-2.376,5.487c-2.388,2.079-5.982,2.49-8.451,2.49h0" transform="translate(-893.087 674.28)" fill="#fff"/>
      <path id="path32" d="M636.913-693.562H625.159c-4.6,0-7.42-4.082-7.539-4.256a1.745,1.745,0,0,1,.464-2.425,1.745,1.745,0,0,1,2.42.457c.038.054,1.941,2.732,4.655,2.732h11.754a1.746,1.746,0,0,1,1.745,1.746,1.745,1.745,0,0,1-1.745,1.745h0" transform="translate(-580.095 700.544)" fill="#fff"/>
      <path id="path34" d="M737.207-384.1l2.767-9.024-2-.614-2.768,9.025c-.029,0-.056,0-.085,0a3.854,3.854,0,0,0-3.854,3.854,3.849,3.849,0,0,0,1.766,3.237l-2.768,9.023,2,.614,2.768-9.024c.029,0,.057,0,.085,0a3.854,3.854,0,0,0,3.854-3.854,3.847,3.847,0,0,0-1.766-3.236" transform="translate(-675.16 442.312)" fill="#fff"/>
      <path id="path36" d="M763.774-397.08H756.82A1.222,1.222,0,0,1,755.6-398.3a1.222,1.222,0,0,1,1.222-1.222h6.954A1.222,1.222,0,0,1,765-398.3a1.222,1.222,0,0,1-1.222,1.222h0" transform="translate(-696.484 447.178)" fill="#fff"/>
      <path id="path38" d="M715.085-238.3h-6.954a1.222,1.222,0,0,1-1.222-1.222,1.222,1.222,0,0,1,1.222-1.222h6.954a1.222,1.222,0,0,1,1.222,1.222,1.222,1.222,0,0,1-1.222,1.222h0" transform="translate(-655.503 313.536)" fill="#fff"/>
      <path id="path40" d="M719.173-360.987a6.815,6.815,0,0,0-6.808,6.807,6.815,6.815,0,0,0,6.808,6.808,6.815,6.815,0,0,0,6.808-6.808A6.815,6.815,0,0,0,719.173-360.987Zm0,14.663a7.864,7.864,0,0,1-7.855-7.855,7.864,7.864,0,0,1,7.855-7.855,7.864,7.864,0,0,1,7.855,7.855,7.864,7.864,0,0,1-7.855,7.855h0" transform="translate(-659.214 415.623)" fill="#fff"/>
      <path id="path42" d="M548.1-360.826a.524.524,0,0,1-.523-.521.523.523,0,0,1,.521-.526l33.253-.161h0a.524.524,0,0,1,.524.521.523.523,0,0,1-.521.526l-33.253.161h0" transform="translate(-521.397 415.623)" fill="#fff"/>
      <path id="path44" d="M574.235-310.668a.475.475,0,0,1-.121-.015l-32.037-7.574a.524.524,0,0,1-.389-.63.524.524,0,0,1,.63-.389l32.038,7.575a.525.525,0,0,1,.389.63.524.524,0,0,1-.51.4h0" transform="translate(-516.425 379.646)" fill="#fff"/>
      <path id="path46" d="M532.753-357.254A3.854,3.854,0,0,1,528.9-353.4a3.854,3.854,0,0,1-3.855-3.854,3.854,3.854,0,0,1,3.855-3.854,3.854,3.854,0,0,1,3.854,3.854" transform="translate(-502.428 414.844)" fill="#fff"/>
    </g>
    <g id="Big-Leaf-Plant" transform="translate(45.855 400.3)">
      <g id="Big-Ass-Leaf" transform="translate(8.346 0)">
        <path id="leaf" d="M9.8,1.05a7.58,7.58,0,0,1,3.116.263A4.084,4.084,0,0,1,15.53,5.534c-.03,1.7-.482,3.557,1.134,4.926.742.63,1.666,1.112,2.4,1.753A8.316,8.316,0,0,1,20.9,14.524a5.558,5.558,0,0,1,.479,4.988c-.669,1.428-2.352,2.718-1.989,4.342.379,1.694,2.514,2.99,3.849,4.252,1.511,1.428,2.9,3.254,3.13,5.127A6,6,0,0,1,24.115,38.2c-2.994,2.711-7.495,4.04-12.033,4.032a13.445,13.445,0,0,1-5.771-.9,2.874,2.874,0,0,1-1.09-.943,3.561,3.561,0,0,0-1.055-.845A5.283,5.283,0,0,1,2.158,37.4C.511,34.135,1.827,30.1,4.132,27.2c.546-.686.993-1.347.728-2.164A7.958,7.958,0,0,0,3.3,22.681a18.971,18.971,0,0,1-1.739-2.2A4.125,4.125,0,0,1,1.024,17.9a7.944,7.944,0,0,1,2.363-4.606c1.243-1.308,2.7-2.56,2.7-4.275,0-1.817-1.514-3.433-.868-5.281A3.586,3.586,0,0,1,6.9,1.73,8.125,8.125,0,0,1,9.8,1.05Z" transform="translate(-1 -1)" fill="#6ba1ac" fill-rule="evenodd"/>
        <path id="middle-thing" d="M22.5,10.342c.019-.244.381-.39.666-.327.375.084.368.364.358.614a6.7,6.7,0,0,0,.339,2.258,35.471,35.471,0,0,0,2.066,4.462,6.635,6.635,0,0,1,.619,4.593c-.388,1.483-1,2.927-1.393,4.411a6.21,6.21,0,0,0-.189,3.993A18.694,18.694,0,0,0,27.43,33.76a13.7,13.7,0,0,1,2.538,7.64,11.514,11.514,0,0,1-.357,3.725,3.616,3.616,0,0,1-1.241,2.14,1.016,1.016,0,0,1-1.234-.03c-.275-.311-.034-.793.053-1.124a13.72,13.72,0,0,0,.363-4.36,12.9,12.9,0,0,0-.851-4.17,13.336,13.336,0,0,0-2.22-3.47,10.512,10.512,0,0,1-2.3-3.555,6.778,6.778,0,0,1,.354-4.025,40.09,40.09,0,0,1,1.659-4.1,5.864,5.864,0,0,0,.48-3.952C24.02,15.747,22.276,13.185,22.5,10.342Z" transform="translate(-14.38 -7.387)" fill="#c3dee2" fill-rule="evenodd"/>
      </g>
      <g id="Big-Ass-Leaf-2" data-name="Big-Ass-Leaf" transform="translate(11.612 2.904)">
        <path id="leaf-2" data-name="leaf" d="M32.983.459a8.425,8.425,0,0,1,3.481,1.607c1.95,1.681,1.352,4.223.275,6.079-1.159,2-2.914,4.006-1.925,6.3.455,1.054,1.22,2.008,1.651,3.07a8.747,8.747,0,0,1,.635,3.5,7.874,7.874,0,0,1-2.733,6.1c-1.728,1.411-4.554,2.235-5.2,4.307-.674,2.162.974,4.582,1.706,6.631.828,2.318,1.254,5.056.285,7.366-.929,2.214-3.273,3.955-5.927,4.935a25.045,25.045,0,0,1-16.777-.24c-2.257-.806-4.77-1.8-6.173-3.469a2.859,2.859,0,0,1-.656-1.569,3.507,3.507,0,0,0-.679-1.438,5.42,5.42,0,0,1-.938-3.375c.223-4.543,4.432-8.767,9.049-11.233,1.094-.584,2.055-1.179,2.284-2.257a8.711,8.711,0,0,0-.271-3.438,19.946,19.946,0,0,1-.585-3.327,5.542,5.542,0,0,1,1.074-3.276,13.447,13.447,0,0,1,5.814-4.463c2.322-1.03,4.86-1.9,6-3.929,1.2-2.147.492-4.691,2.47-6.606A6.022,6.022,0,0,1,29.125.053,10.73,10.73,0,0,1,32.983.459Z" transform="translate(0 0)" fill="#8bc5cc" fill-rule="evenodd"/>
        <path id="middle-thing-2" data-name="middle-thing" d="M50.743,13.235a.776.776,0,0,1,.993-.108c.383.257.192.585.017.877a9.3,9.3,0,0,0-1.081,2.816,42.267,42.267,0,0,0-.5,6.151,9.26,9.26,0,0,1-2.282,5.7c-1.424,1.593-3.081,3.048-4.516,4.639-1.265,1.4-2.6,2.88-2.835,4.649-.223,1.7.432,3.389.643,5.076a17.368,17.368,0,0,1-2.032,10.112,17.847,17.847,0,0,1-2.855,4.262,6.069,6.069,0,0,1-2.851,2.014c-.553.12-1.3-.038-1.423-.553-.117-.484.479-.953.8-1.309a21.167,21.167,0,0,0,3.278-5.011,17.441,17.441,0,0,0,1.734-5.295,14.838,14.838,0,0,0-.325-5.04,11.677,11.677,0,0,1-.366-5.176,10.434,10.434,0,0,1,3.049-4.618c1.441-1.459,3.02-2.813,4.624-4.16a9.119,9.119,0,0,0,3.147-4.479C48.979,20.274,48.617,16.507,50.743,13.235Z" transform="translate(-20.388 -9.225)" fill="#c3dee2" fill-rule="evenodd"/>
      </g>
      <g id="Big-Ass-Leaf-3" data-name="Big-Ass-Leaf" transform="translate(0 16.261)">
        <path id="leaf-3" data-name="leaf" d="M4.828,0a7.565,7.565,0,0,1,5.315,2.195C11.66,3.7,11.967,5.542,12.583,7.338A4.515,4.515,0,0,0,14.34,9.727a9.815,9.815,0,0,0,2.913.933,6.274,6.274,0,0,1,4.274,3.423c.782,1.933-.046,3.883.1,5.843.131,1.8,2.348,2.922,4.132,3.785,1.759.851,3.344,1.647,3.874,3.3A7.654,7.654,0,0,1,29.6,32.47c-1.3,2.891-5.087,4.164-8.751,4.361-3.325.179-7.506-.1-10-2.033a5.072,5.072,0,0,1-1.968-4.38,10.926,10.926,0,0,1,.609-2.957,11.174,11.174,0,0,0,.621-2.075c.232-1.883-1.943-2.245-3.794-2.762A8.683,8.683,0,0,1,1.17,19,5.72,5.72,0,0,1,.3,13.808a5.891,5.891,0,0,1,1.722-2.424c.354-.307.852-.564,1.171-.887a.992.992,0,0,0,.13-1.046C2.844,7.82,1.365,6.469.836,4.84A3.468,3.468,0,0,1,2.321.592,5.208,5.208,0,0,1,4.828,0Z" transform="translate(0 0)" fill="#8bc5cc" fill-rule="evenodd"/>
        <path id="middle-thing-3" data-name="middle-thing" d="M19.211,14.186c2.267,1.932,2.883,4.554,3.064,7.1a14.9,14.9,0,0,0,.519,4.31,7.481,7.481,0,0,0,2.579,2.942c2.177,1.72,4.606,3.469,5.243,5.959.374,1.461.121,2.97.638,4.416a11.4,11.4,0,0,0,2.3,3.713c.81.893,1.864,1.577,2.749,2.41.27.254.657.628.545.987-.13.42-.8.553-1.274.487a5.877,5.877,0,0,1-2.762-1.614,14.534,14.534,0,0,1-2.688-2.95,10.943,10.943,0,0,1-1.743-3.833c-.29-1.4-.145-2.862-.807-4.208-1.113-2.263-3.812-3.6-5.764-5.363-2.431-2.2-2.069-4.934-1.82-7.638.137-1.486.273-3.164-.666-4.521-.358-.518-1.157-1-1.311-1.589A.714.714,0,0,1,19.211,14.186Z" transform="translate(-11.468 -9.935)" fill="#c2dee2" fill-rule="evenodd"/>
      </g>
      <path id="Vase" d="M1.269,0H27.315c.7,0,1.269.329,1.269.735l-1.9,15.21c0,.406-.568.735-1.269.735H3.172c-.7,0-1.269-.329-1.269-.735L0,.735C0,.329.568,0,1.269,0Z" transform="translate(10.063 52.428)" fill="#fff"/>
    </g>
    <g id="humaaans_standing-8" data-name="humaaans/standing-8" transform="translate(227.05 334.595)">
      <g id="A-Human_Standing" data-name="A-Human/Standing" transform="translate(0 0)">
        <g id="Head_Front_Long" data-name="Head/Front/Long" transform="translate(41.302)">
          <path id="Hair-Back" d="M66.119,33.178c1.164,4.29,2.682,13.934,1.133,15.447h-9.8l0-.052A7.263,7.263,0,0,1,51,41.355V34.262A7.262,7.262,0,0,1,58.262,27h.676A7.264,7.264,0,0,1,66.119,33.178Z" transform="translate(-46.271 -27)" fill="#191847" fill-rule="evenodd"/>
          <g id="Head" transform="translate(5.742 1.351)">
            <path id="Path_35091" data-name="Path 35091" d="M2.791,11.65A9.15,9.15,0,0,1,.357,5.075C.864-2.153,10.926-.563,12.884,3.085s1.725,12.9-.8,13.554c-1.009.26-3.158-.377-5.345-1.7l1.373,9.713H0Z" transform="translate(0 0)" fill="#c88a83" fill-rule="evenodd"/>
            <path id="Path_40013" data-name="Path 40013" d="M.513.043s.85,2.108.854,2.2-.039.184-.088.183H0L.194,0Z" transform="translate(13.623 9.193)" fill="#c88a83"/>
          </g>
          <path id="Hair-Front" d="M47.724,39.442c.373,4.012.224,8.594-.889,9.681h-9.8c-.546-9.482,4.729-5.81,4.729-14.738.329-.321.64-.639.947-.914l-.011-.263Q45.249,28,49.16,28c3.911,0,5.146,1.82,6.2,3.365-.786,2.7-3.836,3.1-6.547,4.778a1.858,1.858,0,1,0-1.171,3.3Z" transform="translate(-37 -27.662)" fill="#191847" fill-rule="evenodd"/>
        </g>
        <g id="Bottom_Standing_Skirt" data-name="Bottom/Standing/Skirt" transform="translate(0 52.408)">
          <path id="Skirt-Shadow" d="M97.408,87.648q12.154,3.4,20.973,3.4a28.213,28.213,0,0,0,16.382-5.235q-11.894-3.489-19.59-3.489T97.408,87.648Z" transform="translate(-64.399 -52.883)" fill="#aeaeb2" fill-rule="evenodd"/>
          <path id="Leg" d="M140.356,39.8a1.911,1.911,0,0,1-.2-.384C139.077,36.549,121.728,5.649,120,0h19.532c1.314,4.3,7.229,31.25,8.061,36.628,2.626,8.483,8.033,35.956,8.724,37.86.726,2-3.36,4.088-4.448,1.627a209.425,209.425,0,0,1-7.7-21.371C142.446,48.54,141.043,42.959,140.356,39.8Z" transform="translate(-79.36 1.634)" fill="#a06f69" fill-rule="evenodd"/>
          <path id="Leg-2" data-name="Leg" d="M51.614,43.57c-7.931,2-36.942,5.629-38.933,6.2-2.048.585-3.844-3.637-1.312-4.551a209.424,209.424,0,0,1,21.856-6.189c5.413-1.1,10.352-2,13.668-2.531-.281-9.314-1.565-31.668-.723-36.5H63.451c-.807,4.63-7.63,38.41-8.9,41.791A2.925,2.925,0,0,1,51.614,43.57Z" transform="translate(-6.598 1.634)" fill="#c88a83" fill-rule="evenodd"/>
          <g id="Accessories_Shoe_Flat-Sneaker" data-name="Accessories/Shoe/Flat-Sneaker" transform="translate(6.875 44.811) rotate(80)">
            <path id="shoe" d="M.567,2.05A7.252,7.252,0,0,0,0,4.315,16.948,16.948,0,0,0,.3,6.981H19.355Q20.1,4.526,18.5,4.33T15.84,3.977L6.985.029A.338.338,0,0,0,6.539.2l0,.009L5.966,1.59a6.074,6.074,0,0,1-2.407.691,5.451,5.451,0,0,1-2.078-.608h0a.676.676,0,0,0-.9.333Q.575,2.028.567,2.05Z" transform="translate(0 0)" fill="#fff" fill-rule="evenodd"/>
          </g>
          <g id="Accessories_Shoe_Flat-Sneaker-2" data-name="Accessories/Shoe/Flat-Sneaker" transform="translate(70.701 75.379)">
            <path id="shoe-2" data-name="shoe" d="M1.567,21.382A7.252,7.252,0,0,0,1,23.646a16.948,16.948,0,0,0,.3,2.666H20.355q.743-2.455-.857-2.651t-2.658-.353L7.985,19.361a.338.338,0,0,0-.446.171l0,.009-.569,1.381a6.074,6.074,0,0,1-2.407.691,5.451,5.451,0,0,1-2.078-.608h0a.676.676,0,0,0-.9.333Q1.575,21.36,1.567,21.382Z" transform="translate(-1 -19.332)" fill="#fff" fill-rule="evenodd"/>
          </g>
          <path id="Skirt" d="M101.531-3.2a36.534,36.534,0,0,1,21.617,0c2.364,10.787,8.109,15.069,9.12,31.608-11.484,5.706-25.67-4.07-37.492,1.5C91.4,22.115,96.126,3.371,101.531-3.2Z" transform="translate(-61.904 4.838)" fill="#fff" fill-rule="evenodd"/>
        </g>
        <g id="Body_Long-Sleeve" data-name="Body/Long-Sleeve" transform="translate(13.673 18.577)">
          <path id="Skin" d="M76.879,55.834l13.336-1.819A29.072,29.072,0,0,1,97.578,51c.631-.018,1.634.211.139,1.457s-3.01,2.624-2.744,3.289,1.656.417,1.886,1.44q.23,1.023-6.766.332l-10.821,4.29ZM34.986,58.92l7.4.028Q30.217,86.324,29.7,87.616c-.782,1.937.872,4.887,1.58,6.472-2.3,1.031-2.058-2.787-4.964-1.435-2.652,1.234-4.67,3.47-7.734,1.579-.377-.232-.79-1.108.208-1.792,2.485-1.7,6.067-4.686,6.55-5.668Q26.325,84.764,34.986,58.92Z" transform="translate(-18.163 -33.774)" fill="#c88a83" fill-rule="evenodd"/>
          <path id="Clothes-Back" d="M0,.12,5.8,0C8.348,12.73,16.8,20.172,33.884,15.907l3.75,16.352C21.622,35.769,6.852,30.528,2.406,13.228A74.474,74.474,0,0,1,0,.12Z" transform="translate(37.092 1.569) rotate(5)" fill="#7548c6" fill-rule="evenodd"/>
          <path id="Clothes" d="M68.44.005l8.774,2.009c0,15.091,4.807,24.719,7.273,35.815H60.79c-.334,3.834-.539,7.775-.646,11.822H42.4Q48.433,17.562,67.86,0h.575Z" transform="translate(-34.215)" fill="#b095ff" fill-rule="evenodd"/>
          <path id="Shade" d="M100.582,48.259q-.916,14.106,1.077,21.529H96.844A116.037,116.037,0,0,1,100.582,48.259Z" transform="translate(-70.268 -31.959)" fill="rgba(0,0,0,0.1)" fill-rule="evenodd"/>
        </g>
      </g>
    </g>
  </g>
</svg>
