<svg xmlns="http://www.w3.org/2000/svg" width="375" height="166.913" viewBox="0 0 375 166.913">
  <g id="Group_13352" data-name="Group 13352" transform="translate(0)">
    <path id="Path_39998" data-name="Path 39998" d="M375,117.923s-20.446,21.207-42.665,21.7-124.7.293-150.06,0-28.069-21.314-54.13-21.7-48.781.439-72.827,0S0,83.933,0,83.933V249.647H375Z" transform="translate(0 -83.933)" fill="#eedfff" opacity="0.5"/>
    <rect id="Rectangle_4130" data-name="Rectangle 4130" width="125.33" height="51.767" transform="translate(0 114.948)" fill="#fff"/>
    <path id="Path_39999" data-name="Path 39999" d="M-43.768.065,8.134.15,42.01,31.385H-7.852Z" transform="translate(85.062 46.677)" fill="#c3dee2"/>
    <path id="Union_9" data-name="Union 9" d="M0,68.218V31.134H6.347L41.293,0l35.7,31.134h48.34V68.218Z" transform="translate(0 46.73)" fill="#8cc5cc"/>
    <path id="Rectangle_4132" data-name="Rectangle 4132" d="M0,0H98.525a4,4,0,0,1,4,4V27.366a0,0,0,0,1,0,0H0a0,0,0,0,1,0,0V0A0,0,0,0,1,0,0Z" transform="translate(0 87.779)" fill="#c3dee2"/>
    <path id="Rectangle_4133" data-name="Rectangle 4133" d="M0,0H92.972a4,4,0,0,1,4,4V28.366a0,0,0,0,1,0,0H0a0,0,0,0,1,0,0V0A0,0,0,0,1,0,0Z" transform="translate(0 87.779)" fill="#fff"/>
    <rect id="Rectangle_4134" data-name="Rectangle 4134" width="59.294" height="24.392" transform="translate(163.694 35.633)" fill="#eedfff"/>
    <path id="Rectangle_4135" data-name="Rectangle 4135" d="M0,0H90.015a2,2,0,0,1,2,2V14.46a2,2,0,0,1-2,2H0a0,0,0,0,1,0,0V0A0,0,0,0,1,0,0Z" transform="translate(0 93.332)" fill="#c3dee2" opacity="0.7"/>
    <rect id="Rectangle_4136" data-name="Rectangle 4136" width="125.925" height="108.086" transform="translate(125.33 58.628)" fill="#b095ff"/>
    <rect id="Rectangle_4137" data-name="Rectangle 4137" width="59.294" height="24.392" transform="translate(157.853 34.633)" fill="#b095ff"/>
    <rect id="Rectangle_4138" data-name="Rectangle 4138" width="39.463" height="10.907" transform="translate(118.39 47.721)" fill="#7548c6"/>
    <rect id="Rectangle_4139" data-name="Rectangle 4139" width="125.925" height="7.337" transform="translate(125.33 116.137)" fill="#7548c6"/>
    <rect id="Rectangle_4140" data-name="Rectangle 4140" width="35.299" height="10.907" transform="translate(217.147 47.721)" fill="#7548c6"/>
    <rect id="Rectangle_4141" data-name="Rectangle 4141" width="39.463" height="12.89" rx="2" transform="translate(167.768 41.375)" fill="#7548c6" opacity="0.6"/>
    <rect id="Rectangle_4142" data-name="Rectangle 4142" width="51.56" height="117.993" transform="translate(251.256 47.721)" fill="#623ba8"/>
    <path id="Rectangle_4143" data-name="Rectangle 4143" d="M16.063,0h0A16.063,16.063,0,0,1,32.126,16.063V42.24a0,0,0,0,1,0,0H0a0,0,0,0,1,0,0V16.063A16.063,16.063,0,0,1,16.063,0Z" transform="translate(21.417 123.475)" fill="#c3dee2"/>
    <path id="Rectangle_4144" data-name="Rectangle 4144" d="M16.063,0h0A16.063,16.063,0,0,1,32.126,16.063V36.885a0,0,0,0,1,0,0H0a0,0,0,0,1,0,0V16.063A16.063,16.063,0,0,1,16.063,0Z" transform="translate(145.161 69.931)" fill="#fff"/>
    <path id="Rectangle_4145" data-name="Rectangle 4145" d="M16.063,0h0A16.063,16.063,0,0,1,32.126,16.063V36.885a0,0,0,0,1,0,0H0a0,0,0,0,1,0,0V16.063A16.063,16.063,0,0,1,16.063,0Z" transform="translate(197.713 69.931)" fill="#fff"/>
    <rect id="Rectangle_4146" data-name="Rectangle 4146" width="15.27" height="16.856" transform="translate(71.391 123.475)" fill="#c3dee2"/>
    <rect id="Rectangle_4147" data-name="Rectangle 4147" width="15.27" height="2.975" transform="translate(71.391 140.331)" fill="#8cc5cc"/>
    <rect id="Rectangle_4148" data-name="Rectangle 4148" width="32.126" height="2.975" transform="translate(145.161 103.842)" fill="#7548c6"/>
    <rect id="Rectangle_4149" data-name="Rectangle 4149" width="32.126" height="2.975" transform="translate(197.713 103.842)" fill="#7548c6"/>
    <rect id="Rectangle_4150" data-name="Rectangle 4150" width="17.848" height="19.702" transform="translate(145.161 132.002)" fill="#fff"/>
    <rect id="Rectangle_4151" data-name="Rectangle 4151" width="30.539" height="34.712" transform="translate(172.329 132.002)" fill="#7548c6"/>
    <rect id="Rectangle_4152" data-name="Rectangle 4152" width="17.848" height="19.702" transform="translate(211.991 132.002)" fill="#fff"/>
    <rect id="Rectangle_4153" data-name="Rectangle 4153" width="17.848" height="2.975" transform="translate(145.161 148.66)" fill="#7642c6"/>
    <rect id="Rectangle_4154" data-name="Rectangle 4154" width="17.848" height="2.975" transform="translate(211.991 148.66)" fill="#7642c6"/>
    <rect id="Rectangle_4155" data-name="Rectangle 4155" width="92.808" height="84.488" transform="translate(251.256 82.227)" fill="#fff"/>
    <rect id="Rectangle_4156" data-name="Rectangle 4156" width="30.936" height="84.488" transform="translate(344.064 82.227)" fill="#d0daff"/>
    <path id="Path_40001" data-name="Path 40001" d="M25.414.065l-49.16.048-20.022,17.65H4.186Z" transform="translate(295.07 64.464)" fill="#9fbeff"/>
    <rect id="Rectangle_4157" data-name="Rectangle 4157" width="30.936" height="17.848" transform="translate(344.064 64.577)" fill="#a0bdff"/>
    <path id="Rectangle_4158" data-name="Rectangle 4158" d="M4,0H50.535a4,4,0,0,1,4,4V27.763a0,0,0,0,1,0,0H0a0,0,0,0,1,0,0V4A4,4,0,0,1,4,0Z" transform="translate(295.082 54.662)" fill="#cfdaff"/>
    <path id="Rectangle_4159" data-name="Rectangle 4159" d="M4,0H50.535a4,4,0,0,1,4,4V28.763a0,0,0,0,1,0,0H0a0,0,0,0,1,0,0V4A4,4,0,0,1,4,0Z" transform="translate(289.529 54.662)" fill="#fff"/>
    <path id="Rectangle_4160" data-name="Rectangle 4160" d="M10.609,0h0A10.609,10.609,0,0,1,21.219,10.609v23.1a0,0,0,0,1,0,0H0a0,0,0,0,1,0,0v-23.1A10.609,10.609,0,0,1,10.609,0Z" transform="translate(287.15 132.002)" fill="#bcd0ff"/>
    <rect id="Rectangle_4161" data-name="Rectangle 4161" width="23.202" height="32.919" transform="translate(266.526 91.349)" fill="#bdcfff"/>
    <rect id="Rectangle_4162" data-name="Rectangle 4162" width="23.202" height="32.919" transform="translate(305.592 91.349)" fill="#bdcfff"/>
    <rect id="Rectangle_4163" data-name="Rectangle 4163" width="27.168" height="2.975" transform="translate(264.542 121.293)" fill="#9fbeff"/>
    <rect id="Rectangle_4164" data-name="Rectangle 4164" width="27.168" height="2.975" transform="translate(303.609 121.293)" fill="#9fbeff"/>
    <rect id="Rectangle_4165" data-name="Rectangle 4165" width="43.826" height="17.054" rx="2" transform="translate(294.883 60.016)" fill="#cfdaff" opacity="0.6"/>
    <path id="Subtraction_96" data-name="Subtraction 96" d="M16.853,27.127H0l0-.009c.085-.3.547-1.92,1.318-4.218.776-2.314,2.031-5.808,3.6-9.306a44.981,44.981,0,0,1,5.355-9.321,14.847,14.847,0,0,1,3.168-3.084A7.473,7.473,0,0,1,15.125.318,5.282,5.282,0,0,1,16.853,0V27.126Z" transform="translate(358.147 139.786)" fill="#fff"/>
  </g>
</svg>
