<svg xmlns="http://www.w3.org/2000/svg" width="120" height="120" viewBox="0 0 120 120">
  <g id="Group_9151" data-name="Group 9151" transform="translate(0 0.311)">
    <rect id="Rectangle_3038" data-name="Rectangle 3038" width="120" height="120" transform="translate(0 -0.311)" fill="none"/>
    <g id="calendar_3_" data-name="calendar (3)" transform="translate(6 6)">
      <circle id="Ellipse_525" data-name="Ellipse 525" cx="54" cy="54" r="54" transform="translate(0 -0.311)" fill="#ffc61b"/>
      <path id="Path_20708" data-name="Path 20708" d="M200.566,147.915l-24.733-24.733,1.111,1.111-1.111-1.111-5.85-5.85-3.664,6.985,5.158,5.158-15.894,14.406-26.55-26.55-1.647,8.2,23.576,23.576-6.712,5.8-26.917,20.917,24.544,24.544c1.551.134,3.12.207,4.707.207A54,54,0,0,0,200.566,147.915Z" transform="translate(-92.582 -92.404)" fill="#eaa22f"/>
      <rect id="Rectangle_2759" data-name="Rectangle 2759" width="58.498" height="46.8" transform="translate(24.749 36.63)" fill="#fff"/>
      <g id="Group_4526" data-name="Group 4526" transform="translate(28.364 36.63)">
        <rect id="Rectangle_2760" data-name="Rectangle 2760" width="29.371" height="46.8" transform="translate(25.516)" fill="#d0d1d3"/>
        <rect id="Rectangle_2761" data-name="Rectangle 2761" width="51.273" height="37.04" transform="translate(0 4.847)" fill="#d0d1d3"/>
      </g>
      <rect id="Rectangle_2762" data-name="Rectangle 2762" width="25.757" height="37.04" transform="translate(53.88 41.477)" fill="#a6a8aa"/>
      <rect id="Rectangle_2763" data-name="Rectangle 2763" width="58.498" height="11.698" transform="translate(24.749 30.779)" fill="#c92f00"/>
      <rect id="Rectangle_2764" data-name="Rectangle 2764" width="29.371" height="11.698" transform="translate(53.88 30.779)" fill="#930000"/>
      <rect id="Rectangle_2765" data-name="Rectangle 2765" width="5.851" height="11.698" transform="translate(30.6 24.928)" fill="#ffedb5"/>
      <rect id="Rectangle_2766" data-name="Rectangle 2766" width="5.851" height="11.698" transform="translate(71.549 24.928)" fill="#fee187"/>
      <g id="Group_4527" data-name="Group 4527" transform="translate(33 48)">
        <rect id="Rectangle_2767" data-name="Rectangle 2767" width="6" height="6" transform="translate(0 -0.311)" fill="#a6a8aa"/>
        <rect id="Rectangle_2768" data-name="Rectangle 2768" width="6" height="6" transform="translate(12 -0.311)" fill="#a6a8aa"/>
      </g>
      <g id="Group_4528" data-name="Group 4528" transform="translate(57 48)">
        <rect id="Rectangle_2769" data-name="Rectangle 2769" width="6" height="6" transform="translate(0 -0.311)" fill="#808183"/>
        <rect id="Rectangle_2770" data-name="Rectangle 2770" width="6" height="6" transform="translate(12 -0.311)" fill="#808183"/>
      </g>
      <g id="Group_4529" data-name="Group 4529" transform="translate(33 57.36)">
        <rect id="Rectangle_2771" data-name="Rectangle 2771" width="6" height="6" fill="#a6a8aa"/>
        <rect id="Rectangle_2772" data-name="Rectangle 2772" width="6" height="6" transform="translate(12)" fill="#a6a8aa"/>
      </g>
      <g id="Group_4530" data-name="Group 4530" transform="translate(57 57.36)">
        <rect id="Rectangle_2773" data-name="Rectangle 2773" width="6" height="6" fill="#808183"/>
        <rect id="Rectangle_2774" data-name="Rectangle 2774" width="6" height="6" transform="translate(12)" fill="#808183"/>
      </g>
      <g id="Group_4531" data-name="Group 4531" transform="translate(33 67)">
        <rect id="Rectangle_2775" data-name="Rectangle 2775" width="6" height="6" transform="translate(0 -0.311)" fill="#a6a8aa"/>
        <rect id="Rectangle_2776" data-name="Rectangle 2776" width="6" height="6" transform="translate(12 -0.311)" fill="#a6a8aa"/>
      </g>
      <g id="Group_4532" data-name="Group 4532" transform="translate(57 67)">
        <rect id="Rectangle_2777" data-name="Rectangle 2777" width="6" height="6" transform="translate(0 -0.311)" fill="#808183"/>
        <rect id="Rectangle_2778" data-name="Rectangle 2778" width="6" height="6" transform="translate(12 -0.311)" fill="#808183"/>
      </g>
      <g id="Group_4533" data-name="Group 4533" transform="translate(44.909 53.269)">
        <path id="Path_20709" data-name="Path 20709" d="M215.994,259.507h-.051a.906.906,0,0,1-.659-.34l-2.182-2.727a.909.909,0,1,1,1.42-1.136l1.547,1.934,5.282-5.281a.909.909,0,1,1,1.285,1.285l-6,6A.909.909,0,0,1,215.994,259.507Z" transform="translate(-212.904 -251.689)" fill="#477f3c"/>
        <path id="Path_20710" data-name="Path 20710" d="M272.882,310.793h-.051a.906.906,0,0,1-.659-.34l-2.182-2.727a.909.909,0,1,1,1.42-1.136l1.547,1.934,5.282-5.281a.909.909,0,0,1,1.285,1.285l-6,6A.908.908,0,0,1,272.882,310.793Z" transform="translate(-257.792 -292.157)" fill="#477f3c"/>
      </g>
    </g>
  </g>
</svg>
