<svg xmlns="http://www.w3.org/2000/svg" width="186.066" height="68.436" viewBox="0 0 186.066 68.436">
  <g id="Group_13414" data-name="Group 13414" transform="translate(-9296.432 -7317.105)">
    <g id="_008---ATM" data-name="008---ATM" transform="translate(9411.235 7317.105)">
      <path id="Shape" d="M7,55.29v4.57a1.075,1.075,0,0,0,1.075,1.075H37.107V19H7Z" transform="translate(-7 1.587)" fill="#b095ff"/>
      <path id="Shape-2" data-name="Shape" d="M0,20.43H30.107V-.158H1.009A1.075,1.075,0,0,0,0,.546Z" transform="translate(0 0.158)" fill="#b095ff"/>
      <path id="Shape-3" data-name="Shape" d="M4.544,15.7l21.735.126a.538.538,0,0,0,.505-.355V4.594a.538.538,0,0,0-.505-.72H4.609a.538.538,0,0,0-.505.355V7.152l-.065,7.829a.538.538,0,0,0,.505.72Z" transform="translate(-0.545 0.459)" fill="#fff"/>
      <path id="Shape-4" data-name="Shape" d="M0,20.431V62.366l5.821-5.821a2.151,2.151,0,0,0,.63-1.52V15.283a8.913,8.913,0,0,1,.538-3.049,8.913,8.913,0,0,0,.538-3.052L0,.442Z" transform="translate(30.107 0.156)" fill="#eadcfc"/>
      <rect id="Rectangle-path" width="8.602" height="4.301" rx="0.5" transform="translate(7.682 20.821)" fill="#eedfff"/>
      <path id="Shape-5" data-name="Shape" d="M11.075,26.3a1.075,1.075,0,0,0,1.075-1.075V23.075a1.075,1.075,0,1,0-2.151,0v2.151A1.075,1.075,0,0,0,11.075,26.3Z" transform="translate(9.51 -1.179)" fill="#eedfff"/>
    </g>
    <g id="Group_13405" data-name="Group 13405" transform="translate(9296.432 7330.663)">
      <g id="Group_12568" data-name="Group 12568" transform="translate(0 0)">
        <g id="Group_12569" data-name="Group 12569" transform="translate(0 0)">
          <path id="Path_39712" data-name="Path 39712" d="M210.16,496.83v6.156s4.938,3.771,5.387,6.724c0,0,7.071,1.89,9.089,1.89.184,0,32.874-.225,41.974.955,0,0,.088.032.233.1.514.245,1.726.891,1.9,1.907H348.2c1.282-.626,34.79-1.193,34.79-1.193s10.548-1.18,13.241-3.673l-.407-.3-1.726-1.242.786-3.183a1.989,1.989,0,0,0,.233-.436,3.044,3.044,0,0,0-.347-2.757c-1.121-1.89-.561-8.624-.561-8.624s-15.262-11.1-45.337-13.587a4.2,4.2,0,0,1-2.2.71,9.185,9.185,0,0,1-4.084-.71s-2.468,1.18-13.025-5.2c0,0-17.958-13-41.525-11.812,0,0-24.24-1.538-44.889,6.856a122.356,122.356,0,0,1-20.5,6.56,45.264,45.264,0,0,1-8.536,1.131h-.821s0,2.814-.142,6.136v.017c-.051,1.156-.121,2.373-.219,3.555v.073c-.27,3.293-.735,6.286-1.542,6.878Z" transform="translate(-210.16 -462.448)" fill="#fff"/>
        </g>
        <path id="Intersection_13" data-name="Intersection 13" d="M47.991,0C46.708.595,13.2,1.132,13.2,1.132S2.756,2.243,0,4.587v.062L.367,4.9,2.093,6.082l-.012.045H181.237a4.476,4.476,0,0,1-.6-1.52s-7.071-1.795-9.09-1.795c-.184,0-32.874.214-41.974-.908,0,0-.088-.03-.233-.093-.514-.233-1.725-.847-1.9-1.812Z" transform="translate(186.027 49.948) rotate(180)"/>
        <path id="Path_39713" data-name="Path 39713" d="M243.435,572.544s-6.761-5.275-15.178-4.152c0,0,7.659,6.061,11.11,5.668l.588-.5,3.489.2S243.965,572.937,243.435,572.544Z" transform="translate(-61.815 -543.182)" fill="#ffc043"/>
        <path id="Path_39714" data-name="Path 39714" d="M211.95,626v3.114s.233,2.975,2.919,3.086l7.675.379-1.723-1.179.786-3.024a1.8,1.8,0,0,0,.233-.412c-.7-.642-2.342-1.726-5.687-1.958Z" transform="translate(-36.894 -587.512)" fill="#fff" opacity="0.2"/>
        <path id="Path_39715" data-name="Path 39715" d="M416.951,569.113l-5.891-.233s2.384,1.879,4.068,2.049S416.951,569.113,416.951,569.113Z" transform="translate(-277.61 -543.677)" fill="#fff" opacity="0.2"/>
        <path id="Path_39719" data-name="Path 39719" d="M481.62,472.845l6.535,13.492,23.563.02h21.073s-3.148-1.819-8.218-4.136c-1.674-.769-3.575-1.59-5.637-2.416-1.9-.764-3.94-1.538-6.086-2.271-1.674-.58-3.438-1.138-5.24-1.658C499.437,473.521,490.251,471.942,481.62,472.845Z" transform="translate(-409.862 -469.78)"/>
        <path id="Path_39720" data-name="Path 39720" d="M680.883,483.669s8.206,1.216,16.037,2.117c2.993.344,5.931.642,8.336.807l.335.023c.93.06,1.793.1,2.526.114a9.292,9.292,0,0,0,2.468-.17l-2.2-13.56s-2.852-.074-6.98.129l-.9.049c-.858.049-1.763.1-2.707.17-1.349.093-2.77.2-4.235.34-7.075.649-15.09,1.814-20.165,3.912C662.593,482.069,680.883,483.669,680.883,483.669Z" transform="translate(-631.463 -470.158)"/>
        <path id="Path_39721" data-name="Path 39721" d="M939.617,548.145v3.647s10.847.084,8.521-1.093a28.209,28.209,0,0,1-4.081-2.558Z" transform="translate(-932.057 -527.761)" fill="#f96766"/>
        <path id="Path_39722" data-name="Path 39722" d="M977.66,544.755l4.784.374v-4.384s-2.216-3.114-4.433.337l-.128.2Z" transform="translate(-974.885 -521.097)" fill="#f96766"/>
        <circle id="Ellipse_965" data-name="Ellipse 965" cx="13.692" cy="13.692" r="13.692" transform="translate(140.727 27.494)"/>
        <path id="Path_39723" data-name="Path 39723" d="M298.687,599.092a8.859,8.859,0,1,0,.187-1.795A8.859,8.859,0,0,0,298.687,599.092Z" transform="translate(-153.157 -557.38)" fill="#fff"/>
        <path id="Intersection_14" data-name="Intersection 14" d="M15.592,8.6C4.186,8.476,0,0,0,0H79.415c1.386,2.467,4.857,4.984,4.857,4.984V8.6s-25.455.055-45.805.055C28.292,8.653,19.393,8.64,15.592,8.6Z" transform="translate(84.271 43.937) rotate(180)" fill="#e9dcfc"/>
        <ellipse id="Ellipse_968" data-name="Ellipse 968" cx="13.692" cy="13.692" rx="13.692" ry="13.692" transform="translate(17.535 27.494)"/>
        <path id="Path_39728" data-name="Path 39728" d="M828.367,599.091a8.858,8.858,0,1,0,.187-1.795,8.859,8.859,0,0,0-.187,1.795Z" transform="translate(-805.896 -557.981)" fill="#fff"/>
        <path id="Path_39759" data-name="Path 39759" d="M624.132,613.283h.081S621.538,612.562,624.132,613.283Z" transform="translate(-534.166 -577.506)" opacity="0.1"/>
        <path id="Path_39761" data-name="Path 39761" d="M718.321,672.25v.4a.86.86,0,0,0,0-.4Z" transform="translate(-650.467 -623.005)" opacity="0.1"/>
      </g>
      <path id="Path_39770" data-name="Path 39770" d="M7.937-2.794S3.853-7.975-.269-8.11c-5.971-.021-5.966,0-5.966,0v5.316Z" transform="translate(107.568 21.093)" fill="#fff"/>
    </g>
  </g>
</svg>
