<svg id="Group_12573" data-name="Group 12573" xmlns="http://www.w3.org/2000/svg" width="172.743" height="50.949" viewBox="0 0 172.743 50.949">
  <g id="Group_12568" data-name="Group 12568" transform="translate(0 0)">
    <g id="Group_12569" data-name="Group 12569" transform="translate(0 0)">
      <path id="Path_39712" data-name="Path 39712" d="M210.16,494.368v5.715s4.584,3.5,5,6.242c0,0,6.564,1.755,8.439,1.755.171,0,30.52-.209,38.969.887,0,0,.082.03.216.091.477.227,1.6.827,1.764,1.771h73.763c1.19-.581,32.3-1.107,32.3-1.107s9.792-1.1,12.293-3.41l-.378-.275-1.6-1.153.73-2.955a1.849,1.849,0,0,0,.216-.4,2.826,2.826,0,0,0-.322-2.56c-1.041-1.755-.52-8.007-.52-8.007s-14.169-10.309-42.091-12.614a3.9,3.9,0,0,1-2.045.659,8.527,8.527,0,0,1-3.792-.659s-2.291,1.1-12.092-4.826c0,0-16.672-12.067-38.552-10.966,0,0-22.5-1.428-41.674,6.365a113.6,113.6,0,0,1-19.028,6.09,42.026,42.026,0,0,1-7.925,1.05h-.762s0,2.612-.132,5.7v.016c-.047,1.073-.112,2.2-.2,3.3v.068c-.25,3.058-.682,5.836-1.432,6.386Z" transform="translate(-210.16 -462.448)" fill="#fff"/>
    </g>
    <path id="Intersection_13" data-name="Intersection 13" d="M44.555,0c-1.191.552-32.3,1.051-32.3,1.051S2.558,2.083,0,4.259v.057l.341.236,1.6,1.094-.011.042H168.26a4.157,4.157,0,0,1-.554-1.411s-6.565-1.666-8.439-1.666c-.171,0-30.52.2-38.969-.843,0,0-.082-.028-.216-.086C119.6,1.466,118.48.9,118.318,0Z" transform="translate(172.706 48.391) rotate(180)"/>
    <path id="Path_39713" data-name="Path 39713" d="M242.348,572.235s-6.277-4.9-14.092-3.854c0,0,7.111,5.627,10.315,5.262l.546-.469,3.239.181S242.84,572.6,242.348,572.235Z" transform="translate(-73.733 -544.976)" fill="#ffc043"/>
    <path id="Path_39714" data-name="Path 39714" d="M211.95,626v2.891s.216,2.762,2.71,2.865l7.126.352-1.6-1.095.73-2.807a1.664,1.664,0,0,0,.216-.382c-.648-.6-2.174-1.6-5.279-1.818Z" transform="translate(-49.429 -590.268)" fill="#fff" opacity="0.2"/>
    <path id="Path_39715" data-name="Path 39715" d="M416.529,569.1l-5.469-.216s2.213,1.745,3.777,1.9S416.529,569.1,416.529,569.1Z" transform="translate(-287.166 -545.482)" fill="#fff" opacity="0.2"/>
    <path id="Path_39719" data-name="Path 39719" d="M481.62,472.826l6.067,12.526,21.875.018h19.564s-2.922-1.689-7.629-3.84c-1.554-.714-3.319-1.476-5.233-2.243-1.762-.71-3.658-1.428-5.65-2.109-1.554-.538-3.192-1.056-4.865-1.54C498.161,473.454,489.633,471.988,481.62,472.826Z" transform="translate(-415 -469.981)"/>
    <path id="Path_39720" data-name="Path 39720" d="M680.1,482.9s7.618,1.129,14.888,1.965c2.779.32,5.506.6,7.739.749l.311.022c.864.056,1.665.093,2.345.106a8.633,8.633,0,0,0,2.291-.158L705.632,473s-2.648-.069-6.48.119l-.838.045c-.8.045-1.637.1-2.513.158-1.252.086-2.572.19-3.932.315-6.569.6-14.01,1.684-18.721,3.632C663.122,481.419,680.1,482.9,680.1,482.9Z" transform="translate(-634.222 -470.361)"/>
    <path id="Path_39721" data-name="Path 39721" d="M939.617,548.144v3.386s10.07.078,7.911-1.015a26.2,26.2,0,0,1-3.789-2.375Z" transform="translate(-932.599 -529.22)" fill="#f96766"/>
    <path id="Path_39722" data-name="Path 39722" d="M977.66,544.376l4.442.348v-4.07s-2.058-2.891-4.116.313l-.119.188Z" transform="translate(-975.084 -522.411)" fill="#f96766"/>
    <circle id="Ellipse_965" data-name="Ellipse 965" cx="12.712" cy="12.712" r="12.712" transform="translate(130.65 25.525)"/>
    <path id="Path_39723" data-name="Path 39723" d="M298.687,598.458a8.224,8.224,0,1,0,.174-1.666A8.224,8.224,0,0,0,298.687,598.458Z" transform="translate(-163.578 -559.734)" fill="#fff"/>
    <path id="Intersection_14" data-name="Intersection 14" d="M14.475,7.983C3.886,7.87,0,0,0,0H73.728a18.942,18.942,0,0,0,4.509,4.627V7.983s-23.633.051-42.525.051C26.266,8.034,18,8.021,14.475,7.983Z" transform="translate(78.237 42.609) rotate(180)" fill="#e9dcfc"/>
    <ellipse id="Ellipse_968" data-name="Ellipse 968" cx="12.712" cy="12.712" rx="12.712" ry="12.712" transform="translate(16.279 25.525)"/>
    <path id="Path_39728" data-name="Path 39728" d="M828.367,598.458a8.225,8.225,0,1,0,.174-1.666,8.224,8.224,0,0,0-.174,1.666Z" transform="translate(-807.505 -560.292)" fill="#fff"/>
    <path id="Path_39759" data-name="Path 39759" d="M624.051,613.26h.076S621.643,612.59,624.051,613.26Z" transform="translate(-540.527 -580.045)" opacity="0.1"/>
    <path id="Path_39761" data-name="Path 39761" d="M718.321,672.25v.367a.8.8,0,0,0,0-.367Z" transform="translate(-655.326 -626.531)" opacity="0.1"/>
  </g>
  <path id="Path_39770" data-name="Path 39770" d="M6.922-3.176S3.13-7.985-.7-8.111c-5.544-.02-5.539,0-5.539,0v4.935Z" transform="translate(100.312 20.164)" fill="#fff"/>
</svg>
