<svg xmlns="http://www.w3.org/2000/svg" width="120" height="120.123" viewBox="0 0 120 120.123">
  <g id="Group_13420" data-name="Group 13420" transform="translate(0 -0.051)">
    <g id="Group_13418" data-name="Group 13418" transform="translate(0 0)">
      <circle id="Ellipse_1035" data-name="Ellipse 1035" cx="60" cy="60" r="60" transform="translate(0 0.051)" fill="#c3dee2"/>
      <g id="Group_13419" data-name="Group 13419" transform="translate(45.274 35.101)">
        <path id="Shape" d="M7,62.548v5.484a1.29,1.29,0,0,0,1.29,1.29H43.129V19H7Z" transform="translate(-7 5.705)" fill="#b095ff"/>
        <path id="Shape-2" data-name="Shape" d="M0,24.547H36.129V-.158H1.21A1.29,1.29,0,0,0,0,.686Z" transform="translate(0 0.158)" fill="#b095ff"/>
        <path id="Shape-3" data-name="Shape" d="M4.651,18.067l26.082.151a.645.645,0,0,0,.606-.426V4.738a.645.645,0,0,0-.606-.865h-26a.645.645,0,0,0-.606.426V7.808L4.045,17.2a.645.645,0,0,0,.606.865Z" transform="translate(0.148 1.325)" fill="#fff"/>
        <path id="Shape-4" data-name="Shape" d="M0,24.429V74.751l6.986-6.986a2.581,2.581,0,0,0,.756-1.824V18.251a10.7,10.7,0,0,1,.645-3.659,10.7,10.7,0,0,0,.645-3.662L0,.442Z" transform="translate(36.129 0.276)" fill="#eadcfc"/>
        <rect id="Rectangle-path" width="10.322" height="5.161" rx="0.5" transform="translate(9.219 24.985)" fill="#eedfff"/>
        <path id="Shape-5" data-name="Shape" d="M11.29,27.161a1.29,1.29,0,0,0,1.29-1.29V23.29a1.29,1.29,0,1,0-2.581,0v2.581A1.29,1.29,0,0,0,11.29,27.161Z" transform="translate(13.412 2.985)" fill="#eedfff"/>
      </g>
      <path id="Intersection_25" data-name="Intersection 25" d="M18.084,60.276A60.1,60.1,0,0,1,2.545,0a86.042,86.042,0,0,1,27.84,12.049c12.668,7.654,15.63,6.238,15.63,6.238a11.025,11.025,0,0,0,4.9.852,5.047,5.047,0,0,0,2.643-.852c36.09,2.98,54.4,16.3,54.4,16.3s-.673,8.081.673,10.349a3.659,3.659,0,0,1,.416,3.309,2.36,2.36,0,0,1-.28.523l-.943,3.82.479.344q-1.476,2-3.11,3.87a76.5,76.5,0,0,1-10.7,2.039s-40.208.679-41.747,1.431Z" transform="translate(0.001 42.829)" fill="#fff"/>
      <path id="Intersection_27" data-name="Intersection 27" d="M6.346,7.353A60.388,60.388,0,0,1,0,0H96.309l-.014.055.394.269q-1.426,1.924-3,3.726A80.011,80.011,0,0,1,82.965,5.994s-40.209.645-41.748,1.359Z" transform="translate(11.536 95.695)"/>
      <path id="Path_39713" data-name="Path 39713" d="M246.47,573.405s-8.113-6.33-18.214-4.982c0,0,9.191,7.273,13.333,6.8l.706-.606,4.187.234S247.106,573.877,246.47,573.405Z" transform="translate(-141.417 -497.601)" fill="#ffc043"/>
      <path id="Path_39714" data-name="Path 39714" d="M211.95,626v3.737s.279,3.57,3.5,3.7l9.21.455-2.068-1.415.943-3.628a2.157,2.157,0,0,0,.279-.494c-.837-.77-2.811-2.071-6.824-2.35Z" transform="translate(-114.772 -539.244)" fill="#fff" opacity="0.2"/>
      <path id="Path_39715" data-name="Path 39715" d="M418.13,569.159l-7.07-.279s2.861,2.255,4.881,2.459S418.13,569.159,418.13,569.159Z" transform="translate(-363.81 -498.066)" fill="#fff" opacity="0.2"/>
      <path id="Intersection_26" data-name="Intersection 26" d="M28.424,13.395H9.338L0,13.387c0-.093,0-.185,0-.278A60.219,60.219,0,0,1,1.436,0q1.5.392,2.972.816c2.163.625,4.279,1.294,6.289,1.99,2.575.88,5.026,1.808,7.3,2.726,2.474.99,4.755,1.976,6.764,2.9,6.085,2.781,9.861,4.964,9.861,4.964Z" transform="translate(0 47.067)"/>
      <circle id="Ellipse_965" data-name="Ellipse 965" cx="16.431" cy="16.431" r="16.431" transform="translate(55.982 73.563)"/>
      <path id="Path_39723" data-name="Path 39723" d="M298.687,600.861a10.63,10.63,0,1,0,.224-2.154A10.63,10.63,0,0,0,298.687,600.861Z" transform="translate(-236.941 -510.237)" fill="#fff"/>
      <path id="Path_39770" data-name="Path 39770" d="M10.771-1.729S5.87-7.946.924-8.108c-7.166-.026-7.16,0-7.16,0v6.379Z" transform="translate(14.944 64.258)" fill="#fff"/>
    </g>
    <path id="Intersection_28" data-name="Intersection 28" d="M0,0H76.571A59.75,59.75,0,0,1,38.286,13.8,59.751,59.751,0,0,1,0,0Z" transform="translate(21.715 106.374)" fill="#fff"/>
  </g>
</svg>
