<svg xmlns="http://www.w3.org/2000/svg" width="48" height="33.924" viewBox="0 0 48 33.924">
  <g id="Group_13462" data-name="Group 13462" transform="translate(-25.999 -184)">
    <g id="_008---ATM" data-name="008---ATM" transform="translate(49.453 184)">
      <path id="Shape" d="M7,37.779v2.365a.556.556,0,0,0,.556.556H22.579V19H7Z" transform="translate(-7 -8.428)" fill="#b095ff"/>
      <path id="Shape-2" data-name="Shape" d="M0,10.572H15.579L19.474,0H4.284a.556.556,0,0,0-.522.364Z" transform="translate(0 0)" fill="#b095ff"/>
      <path id="Shape-3" data-name="Shape" d="M6.228,10.12H16.472a.278.278,0,0,0,.262-.184l2.053-5.564A.278.278,0,0,0,18.525,4H8.281a.278.278,0,0,0-.262.184L7.536,5.491,5.967,9.748a.278.278,0,0,0,.262.373Z" transform="translate(-2.64 -1.774)" fill="#fff"/>
      <path id="Shape-4" data-name="Shape" d="M0,10.572v21.7l3.012-3.012a1.113,1.113,0,0,0,.326-.787V7.908A4.612,4.612,0,0,1,3.617,6.33a4.612,4.612,0,0,0,.278-1.579V0Z" transform="translate(15.579 0)" fill="#eadcfc"/>
      <rect id="Rectangle-path" width="4.451" height="2.226" rx="0.5" transform="translate(5.008 12.241)" fill="#eedfff"/>
      <path id="Shape-5" data-name="Shape" d="M10.556,24.226a.556.556,0,0,0,.556-.556V22.556a.556.556,0,1,0-1.113,0v1.113A.556.556,0,0,0,10.556,24.226Z" transform="translate(1.128 -9.759)" fill="#eedfff"/>
    </g>
    <path id="Subtraction_99" data-name="Subtraction 99" d="M28.7,20.941H0V.068C.892.023,1.778,0,2.635,0,3.811,0,4.515.044,4.521.044c.405-.02.818-.031,1.226-.031A26.388,26.388,0,0,1,11.9.76,29.991,29.991,0,0,1,16.8,2.4,25.728,25.728,0,0,1,21.208,4.79c3.058,1.848,4.428,2.124,4.973,2.124a.692.692,0,0,0,.261-.035,3.962,3.962,0,0,0,1.415.3c.076,0,.152,0,.226-.009a1.713,1.713,0,0,0,.885-.285,50.958,50.958,0,0,1,7.946,1.274,41.175,41.175,0,0,1,5.7,1.83,23.935,23.935,0,0,1,4.578,2.356c0,.027-.222,2.711.225,3.466a1.222,1.222,0,0,1,.139,1.108.829.829,0,0,1-.094.176l-.316,1.279.693.5.163.12c-1.054.975-5.147,1.456-5.32,1.476-.135,0-13.467.228-13.981.479Z" transform="translate(25.999 195.871)" fill="#fff"/>
    <path id="Subtraction_101" data-name="Subtraction 101" d="M28.7,2.462H0V0H47.148l0,.018.693.474.148.1V.619C46.891,1.548,42.721,2,42.679,2.007c-.135,0-13.471.22-13.981.455Z" transform="translate(25.999 214.354)"/>
    <path id="Path_39713" data-name="Path 39713" d="M234.356,569.967a8.97,8.97,0,0,0-6.1-1.668s3.078,2.436,4.465,2.278l.236-.2,1.4.078S234.569,570.125,234.356,569.967Z" transform="translate(-162.143 -362.297)" fill="#ffc043"/>
    <path id="Path_39714" data-name="Path 39714" d="M211.95,626v1.252s.093,1.2,1.173,1.24l3.084.152-.693-.474.316-1.215a.724.724,0,0,0,.093-.166,3.654,3.654,0,0,0-2.285-.787Z" transform="translate(-142.375 -414.663)" fill="#fff" opacity="0.2"/>
    <path id="Path_39715" data-name="Path 39715" d="M413.428,568.973l-2.367-.093a4.328,4.328,0,0,0,1.635.823C413.372,569.772,413.428,568.973,413.428,568.973Z" transform="translate(-358.205 -362.882)" fill="#fff" opacity="0.2"/>
    <path id="Path_39719" data-name="Path 39719" d="M481.62,472.69l2.626,5.422,9.469.008h8.469s-1.265-.731-3.3-1.662c-.673-.309-1.436-.639-2.265-.971-.763-.307-1.583-.618-2.446-.913-.673-.233-1.382-.457-2.106-.666A28.156,28.156,0,0,0,481.62,472.69Z" transform="translate(-453.556 -275.589)"/>
    <path id="Subtraction_100" data-name="Subtraction 100" d="M4.227,5.525l-.2,0c-.278,0-.62-.02-1.015-.046l-.134-.009C2.109,5.414,1.14,5.323,0,5.2V.137C.324.114.641.1.97.077l.363-.02C2.295.01,3.08,0,3.57,0c.309,0,.51,0,.564.005h0l.885,5.45A3.045,3.045,0,0,1,4.227,5.525Z" transform="translate(25.999 197.007)"/>
    <circle id="Ellipse_965" data-name="Ellipse 965" cx="5.502" cy="5.502" r="5.502" transform="translate(55.779 206.919)"/>
    <path id="Path_39723" data-name="Path 39723" d="M298.687,593.8a3.56,3.56,0,1,0,.075-.721A3.56,3.56,0,0,0,298.687,593.8Z" transform="translate(-240.977 -381.169)" fill="#fff"/>
    <path id="Subtraction_98" data-name="Subtraction 98" d="M9.875,3.472H0V0C1.731,0,2.911.009,3.61.016A7.922,7.922,0,0,1,6.522.577,6.981,6.981,0,0,1,8.461,1.763,6.172,6.172,0,0,1,9.874,3.472Z" transform="translate(25.999 210.842)" fill="#e9dcfc"/>
    <path id="Path_39759" data-name="Path 39759" d="M623.455,613.091h.033S622.413,612.8,623.455,613.091Z" transform="translate(-588.074 -402.844)" opacity="0.1"/>
    <path id="Path_39761" data-name="Path 39761" d="M718.321,672.25v.159A.346.346,0,0,0,718.321,672.25Z" transform="translate(-691.826 -456.59)" opacity="0.1"/>
    <path id="Path_39770" data-name="Path 39770" d="M-.541-5.98s-1.641-2.082-3.3-2.136c-2.4-.009-2.4,0-2.4,0V-5.98Z" transform="translate(46.184 209.204)" fill="#fff"/>
  </g>
</svg>
