<svg xmlns="http://www.w3.org/2000/svg" width="64" height="29.404" viewBox="0 0 64 29.404">
  <g id="Group_13373" data-name="Group 13373" transform="translate(-25.999 -199.828)">
    <path id="Subtraction_99" data-name="Subtraction 99" d="M38.264,27.922H0V.091C1.189.03,2.371,0,3.513,0,5.082,0,6.021.058,6.028.059,6.568.032,7.119.018,7.663.018a35.194,35.194,0,0,1,8.205.995A40.012,40.012,0,0,1,22.4,3.2a34.243,34.243,0,0,1,5.877,3.185c4.078,2.464,5.9,2.831,6.63,2.831a.926.926,0,0,0,.348-.046,5.286,5.286,0,0,0,1.887.394c.1,0,.2,0,.3-.013a2.282,2.282,0,0,0,1.18-.381,67.921,67.921,0,0,1,10.594,1.7,54.9,54.9,0,0,1,7.6,2.44,31.865,31.865,0,0,1,6.1,3.142c0,.036-.3,3.614.3,4.621a1.629,1.629,0,0,1,.186,1.477,1.094,1.094,0,0,1-.125.234l-.421,1.705.924.666.218.159c-1.4,1.3-6.862,1.941-7.094,1.968-.18,0-17.956.3-18.642.639Z" transform="translate(25.999 199.828)" fill="#fff"/>
    <path id="Subtraction_101" data-name="Subtraction 101" d="M38.264,3.283H0V0H62.864l-.006.024.924.632.2.137V.826c-1.458,1.239-7.018,1.845-7.074,1.851-.18,0-17.962.293-18.641.607Z" transform="translate(25.999 224.472)"/>
    <path id="Path_39713" data-name="Path 39713" d="M236.389,570.544a11.96,11.96,0,0,0-8.133-2.225s4.1,3.248,5.953,3.037l.315-.27,1.869.1S236.673,570.755,236.389,570.544Z" transform="translate(-148.772 -354.984)" fill="#ffc043"/>
    <path id="Path_39714" data-name="Path 39714" d="M211.95,626v1.669s.125,1.594,1.564,1.654l4.112.2-.923-.632.421-1.62a.961.961,0,0,0,.125-.221A4.871,4.871,0,0,0,214.2,626Z" transform="translate(-127.85 -405.55)" fill="#fff" opacity="0.2"/>
    <path id="Path_39715" data-name="Path 39715" d="M414.217,569l-3.157-.125a5.772,5.772,0,0,0,2.18,1.1C414.142,570.069,414.217,569,414.217,569Z" transform="translate(-349.253 -355.549)" fill="#fff" opacity="0.2"/>
    <path id="Path_39719" data-name="Path 39719" d="M481.62,472.725l3.5,7.229,12.625.011h11.291s-1.686-.974-4.4-2.216c-.9-.412-1.915-.852-3.02-1.295-1.017-.41-2.111-.824-3.261-1.217-.9-.311-1.842-.61-2.808-.889A37.539,37.539,0,0,0,481.62,472.725Z" transform="translate(-452.868 -271.256)"/>
    <path id="Subtraction_100" data-name="Subtraction 100" d="M5.636,7.366l-.261,0C5,7.357,4.548,7.337,4.022,7.3L3.843,7.29C2.812,7.219,1.519,7.1,0,6.928V.182C.432.153.855.127,1.293.1L1.777.076C3.06.013,4.107,0,4.76,0c.412,0,.68.005.752.007h0L6.7,7.273A4.047,4.047,0,0,1,5.636,7.366Z" transform="translate(25.999 201.343)"/>
    <circle id="Ellipse_965" data-name="Ellipse 965" cx="7.336" cy="7.336" r="7.336" transform="translate(65.706 214.559)"/>
    <path id="Path_39723" data-name="Path 39723" d="M298.687,594.986a4.747,4.747,0,1,0,.1-.962A4.747,4.747,0,0,0,298.687,594.986Z" transform="translate(-230.407 -372.81)" fill="#fff"/>
    <path id="Subtraction_98" data-name="Subtraction 98" d="M13.166,4.63H0V0C2.308.005,3.882.012,4.813.022A10.554,10.554,0,0,1,8.7.77a9.313,9.313,0,0,1,2.585,1.58,8.238,8.238,0,0,1,1.885,2.278Z" transform="translate(25.999 219.789)" fill="#e9dcfc"/>
    <path id="Path_39759" data-name="Path 39759" d="M623.607,613.134h.044S622.217,612.748,623.607,613.134Z" transform="translate(-585.099 -394.137)" opacity="0.1"/>
    <path id="Path_39761" data-name="Path 39761" d="M718.321,672.25v.212a.457.457,0,0,0,0-.212Z" transform="translate(-691.661 -446.036)" opacity="0.1"/>
    <path id="Path_39770" data-name="Path 39770" d="M1.358-5.266S-.83-8.042-3.039-8.115c-3.2-.011-3.2,0-3.2,0v2.848Z" transform="translate(50.834 214.898)" fill="#fff"/>
  </g>
</svg>
