<svg xmlns="http://www.w3.org/2000/svg" xmlns:xlink="http://www.w3.org/1999/xlink" width="375" height="223.578" viewBox="0 0 375 223.578">
  <defs>
    <filter id="Union_17" x="159" y="59.088" width="66.96" height="71.999" filterUnits="userSpaceOnUse">
      <feOffset dy="6" input="SourceAlpha"/>
      <feGaussianBlur stdDeviation="5" result="blur"/>
      <feFlood flood-opacity="0.161"/>
      <feComposite operator="in" in2="blur"/>
      <feComposite in="SourceGraphic"/>
    </filter>
  </defs>
  <g id="Group_13390" data-name="Group 13390" transform="translate(-265.928 -268.12)">
    <g id="Group_12747" data-name="Group 12747" transform="translate(265.928 268.12)">
      <g id="Group_12740" data-name="Group 12740" transform="translate(0 0)">
        <g id="Group_12737" data-name="Group 12737" transform="translate(0 0.026)">
          <path id="Subtraction_73" data-name="Subtraction 73" d="M24,0H351a24,24,0,0,1,24,24V223.551H0V24A24,24,0,0,1,24,0Z" transform="translate(0 0)" fill="#fff"/>
          <path id="Subtraction_72" data-name="Subtraction 72" d="M358.817,223.552H183.529l-10.9-10.9,87.645-87.645,98.546,98.546h0Zm-206,0H117.409L69.983,176.126,84.39,161.718c6.7-6.586,12.305-12.033,16.66-16.187a40.2,40.2,0,0,1,10.421-7.03,75.175,75.175,0,0,1,13.114-4.746c9.484-2.578,20.178-4.143,31.5-5.8,13.311-1.948,27.074-3.962,39.883-7.811a98.189,98.189,0,0,0,18.267-7.363,66.08,66.08,0,0,0,15.6-11.415C261.569,69.629,324.168,7.033,331.2,0H351a23.934,23.934,0,0,1,17.643,7.73L152.82,223.552Zm-64.943,0H31.172v-8.614L65.53,180.579l32.66,32.66L87.877,223.552Zm287.123,0h-7.277l-103-103L284.674,100.6,375,190.93v32.621Zm-200.376,0h-12.9l6.449-6.449,6.447,6.448Zm-66.122,0H96.782l5.86-5.86,5.858,5.858Zm-83.628,0H22.557l2.317-2.317v2.316Zm-11.223,0h0l-13.65,0v-116.5l4.133,0c5.265,0,12.8-.01,20.741-.013v105.3Zm17.52-17.52h0v-99h8.063c11.449,0,18.784.008,21.8.025h.113c4.482,0,9.344-1.493,14.45-4.436a57.037,57.037,0,0,0,11.267-8.7c3.113-3.085,19.988-20.195,36.307-36.742,13.715-13.905,26.668-27.04,29.587-29.955C159.046,20.94,160.7,6.669,160.7,0h76.5L31.172,206.032ZM375,182.027v0h0L289.126,96.151l83.19-83.19A24.06,24.06,0,0,1,375,24V182.023h0v0ZM116.2,129.905,246.109,0h24.547l25.772,25.772c-22.295,22.255-52.693,52.635-70.9,70.991a60.554,60.554,0,0,1-14.847,10.85,95.073,95.073,0,0,1-17.669,7.051c-12.463,3.709-26.049,5.71-39.187,7.646-13.71,2.02-26.657,3.927-37.62,7.593ZM0,99.787V24A23.98,23.98,0,0,1,24,0H154.054a54.61,54.61,0,0,1-1.4,11.5c-1.184,5.023-2.977,8.993-5.328,11.8-5.394,6.44-57.584,57.1-66.782,65.489-4.144,3.778-7.307,6.444-10.267,8.066a19.26,19.26,0,0,1-9.248,2.324C54.824,99.4,12.748,99.7,0,99.787ZM300.886,21.325h0L279.562,0h42.7c-6.392,6.373-13.585,13.547-21.378,21.324Z" transform="translate(0 0)" fill="#e5e5ea"/>
        </g>
        <path id="Intersection_22" data-name="Intersection 22" d="M.541,107.053v0l3.592,0c5.265,0,12.8-.01,20.741-.014v.041c-5,.007-9.776.012-13.791.012C5.991,107.084,2.118,107.076.541,107.053Zm30.631-.024h8.063c11.449,0,18.784.008,21.8.024h.113a21.439,21.439,0,0,0,2.773-.184,21.3,21.3,0,0,1-2.886.185c-4.607-.026-16.418-.009-28.454.008l-1.408,0Zm32.817-.169-.062.008Zm.08-.011h0Zm12.779-4.98-.018.011Zm8.617-6.613a57.134,57.134,0,0,1-8.595,6.6A57.589,57.589,0,0,0,85.465,95.256ZM0,35.217V24A23.981,23.981,0,0,1,24,0H154.054a54.607,54.607,0,0,1-1.4,11.5c-1.184,5.023-2.976,8.993-5.327,11.8-5.394,6.44-57.584,57.1-66.782,65.489-4.145,3.777-7.307,6.445-10.267,8.066a19.256,19.256,0,0,1-9.248,2.324c-6.15.214-47.483.513-60.659.6C.184,85.847.082,56.286,0,35.217ZM85.53,95.195l-.049.045Zm.071-.066-.019.017Zm1.063-1.017-.007.007Zm.076-.075-.016.016Zm.124-.122c3.112-3.085,19.987-20.2,36.307-36.742l2.406-2.439c-16.743,16.976-35.446,35.943-38.712,39.18l-.068.067Zm65.564-66.366,0,0Zm.091-.092-.006.006Zm.239-.239-.057.057ZM160.7,0h0a64.318,64.318,0,0,1-1.685,14.05A64.8,64.8,0,0,0,160.7,0Z" transform="translate(0 0.026)" fill="#8cc5cc"/>
        <path id="Intersection_23" data-name="Intersection 23" d="M23.6,42.973,0,42.951V34.345L34.344,0l32.62,32.62L56.67,42.973Z" transform="translate(31.186 180.605)" fill="#6ca1ac"/>
        <path id="Path_39930" data-name="Path 39930" d="M.209-.152,42.95-.162,21.559,21.192Z" transform="translate(279.328 0.162)" fill="#ffe1a9"/>
        <g id="Group_13392" data-name="Group 13392" transform="translate(3 2)">
          <g id="Ellipse_1029" data-name="Ellipse 1029" transform="translate(115 33.088)" fill="#cfdaff" stroke="#77a1ff" stroke-width="4" opacity="0.6">
            <ellipse cx="75.5" cy="76.5" rx="75.5" ry="76.5" stroke="none"/>
            <ellipse cx="75.5" cy="76.5" rx="73.5" ry="74.5" fill="none"/>
          </g>
          <g id="Group_12738" data-name="Group 12738" transform="translate(213.404 43.709)">
            <rect id="Rectangle_2888" data-name="Rectangle 2888" width="84.904" height="27.498" transform="translate(0 0)" fill="#fff"/>
            <rect id="Rectangle_2889" data-name="Rectangle 2889" width="28.521" height="27.498" transform="translate(0 0)"/>
            <circle id="Ellipse_971" data-name="Ellipse 971" cx="4.5" cy="4.5" r="4.5" transform="translate(8.596 9.378)" fill="#fff" opacity="0.7"/>
            <rect id="Rectangle_3790" data-name="Rectangle 3790" width="30" height="8" transform="translate(37.596 10.378)" fill="#aeaeb2" opacity="0.3"/>
          </g>
          <g id="Group_13528" data-name="Group 13528" transform="translate(0 -3)">
            <circle id="Ellipse_486" data-name="Ellipse 486" cx="4" cy="4" r="4" transform="translate(185.7 115.221)" fill="#1477fb"/>
            <g id="Group_13526" data-name="Group 13526" transform="translate(-38 -85.912)">
              <g transform="matrix(1, 0, 0, 1, 35, 86.91)" filter="url(#Union_17)">
                <path id="Union_17-2" data-name="Union 17" d="M18.479,42c-.013-.007-.026-.014-.04-.023L18.4,42h0v-.05A7.833,7.833,0,0,1,17.467,41L17.462,41A53,53,0,0,0,7.045,32.142h.133A16.053,16.053,0,0,1,0,18.48a18.48,18.48,0,0,1,36.96,0,16.054,16.054,0,0,1-7.18,13.661h.053A53.091,53.091,0,0,0,19.415,41l0,.005a7.833,7.833,0,0,1-.931.944V42h0Z" transform="translate(174 68.09)" fill="#1477fb"/>
              </g>
              <g id="Group_9092" data-name="Group 9092" transform="translate(217.267 162.856)">
                <rect id="Rectangle_3016" data-name="Rectangle 3016" width="20" height="20" transform="translate(0)" fill="none"/>
                <path id="Path_25586" data-name="Path 25586" d="M19.851,15.568H18.657l-.77-2.407A2.977,2.977,0,0,0,15.056,11.1H8.239a2.959,2.959,0,0,0-2.831,2.061l-.77,2.407H3.444a.945.945,0,0,0-.944.944v.539a.945.945,0,0,0,.944.944h.327a12.169,12.169,0,0,0-.289,2.638v4.526a.945.945,0,0,0,.944.944H6a.945.945,0,0,0,.944-.944V23.714h9.436v1.444a.945.945,0,0,0,.944.944h1.579a.945.945,0,0,0,.944-.944V20.613a12.169,12.169,0,0,0-.289-2.638h.327a.945.945,0,0,0,.944-.944v-.539A1,1,0,0,0,19.851,15.568Zm-13.557.963L7.2,13.719a1.11,1.11,0,0,1,1.04-.77h6.817a1.075,1.075,0,0,1,1.04.77L17,16.531a.193.193,0,0,1-.193.25H6.486A.187.187,0,0,1,6.294,16.531Zm1.964,4.6H6.352a.567.567,0,0,1-.578-.578V19.65a.593.593,0,0,1,.674-.578l1.772.289A.6.6,0,0,1,8.7,19.8l.135.616A.586.586,0,0,1,8.258,21.133Zm9.244-.578a.567.567,0,0,1-.578.578H15.018a.575.575,0,0,1-.558-.693l.135-.616a.575.575,0,0,1,.481-.443l1.772-.289a.583.583,0,0,1,.674.578v.886Z" transform="translate(-1.683 -8.6)" fill="#f7f7f7"/>
              </g>
            </g>
          </g>
        </g>
        <path id="Subtraction_76" data-name="Subtraction 76" d="M55.916,111.834v0h0L0,55.916,55.916,0V111.832h0Z" transform="translate(319.084 39.86)" fill="#d1d1d6"/>
      </g>
    </g>
  </g>
</svg>
