<svg xmlns="http://www.w3.org/2000/svg" width="375" height="223.578" viewBox="0 0 375 223.578">
  <g id="Group_12740" data-name="Group 12740" transform="translate(0 0)">
    <g id="Group_12737" data-name="Group 12737" transform="translate(0 0.026)">
      <path id="Subtraction_73" data-name="Subtraction 73" d="M24,0H351a24,24,0,0,1,24,24V223.551H0V24A24,24,0,0,1,24,0Z" transform="translate(0 0)" fill="#fff"/>
      <path id="Subtraction_72" data-name="Subtraction 72" d="M358.817,223.552H183.529l-10.9-10.9,87.645-87.645,98.546,98.546h0Zm-206,0H117.409L69.983,176.126,84.39,161.718c6.7-6.586,12.305-12.033,16.66-16.187a40.2,40.2,0,0,1,10.421-7.03,75.175,75.175,0,0,1,13.114-4.746c9.484-2.578,20.178-4.143,31.5-5.8,13.311-1.948,27.074-3.962,39.883-7.811a98.189,98.189,0,0,0,18.267-7.363,66.08,66.08,0,0,0,15.6-11.415C261.569,69.629,324.168,7.033,331.2,0H351a23.934,23.934,0,0,1,17.643,7.73L152.82,223.552Zm-64.943,0H31.172v-8.614L65.53,180.579l32.66,32.66L87.877,223.552Zm287.123,0h-7.277l-103-103L284.674,100.6,375,190.93v32.621Zm-200.376,0h-12.9l6.449-6.449,6.447,6.448Zm-66.122,0H96.782l5.86-5.86,5.858,5.858Zm-83.628,0H22.557l2.317-2.317v2.316Zm-11.223,0h0l-13.65,0v-116.5l4.133,0c5.265,0,12.8-.01,20.741-.013v105.3Zm17.52-17.52h0v-99h8.063c11.449,0,18.784.008,21.8.025h.113c4.482,0,9.344-1.493,14.45-4.436a57.037,57.037,0,0,0,11.267-8.7c3.113-3.085,19.988-20.195,36.307-36.742,13.715-13.905,26.668-27.04,29.587-29.955C159.046,20.94,160.7,6.669,160.7,0h76.5L31.172,206.032ZM375,182.027v0h0L289.126,96.151l83.19-83.19A24.06,24.06,0,0,1,375,24V182.023h0v0ZM116.2,129.905,246.109,0h24.547l25.772,25.772c-22.295,22.255-52.693,52.635-70.9,70.991a60.554,60.554,0,0,1-14.847,10.85,95.073,95.073,0,0,1-17.669,7.051c-12.463,3.709-26.049,5.71-39.187,7.646-13.71,2.02-26.657,3.927-37.62,7.593ZM0,99.787V24A23.98,23.98,0,0,1,24,0H154.054a54.61,54.61,0,0,1-1.4,11.5c-1.184,5.023-2.977,8.993-5.328,11.8-5.394,6.44-57.584,57.1-66.782,65.489-4.144,3.778-7.307,6.444-10.267,8.066a19.26,19.26,0,0,1-9.248,2.324C54.824,99.4,12.748,99.7,0,99.787ZM300.886,21.325h0L279.562,0h42.7c-6.392,6.373-13.585,13.547-21.378,21.324Z" transform="translate(0 0)" fill="#e5e5ea"/>
    </g>
    <path id="Intersection_22" data-name="Intersection 22" d="M.541,107.053v0l3.592,0c5.265,0,12.8-.01,20.741-.014v.041c-5,.007-9.776.012-13.791.012C5.991,107.084,2.118,107.076.541,107.053Zm30.631-.024h8.063c11.449,0,18.784.008,21.8.024h.113a21.439,21.439,0,0,0,2.773-.184,21.3,21.3,0,0,1-2.886.185c-4.607-.026-16.418-.009-28.454.008l-1.408,0Zm32.817-.169-.062.008Zm.08-.011h0Zm12.779-4.98-.018.011Zm8.617-6.613a57.134,57.134,0,0,1-8.595,6.6A57.589,57.589,0,0,0,85.465,95.256ZM0,35.217V24A23.981,23.981,0,0,1,24,0H154.054a54.607,54.607,0,0,1-1.4,11.5c-1.184,5.023-2.976,8.993-5.327,11.8-5.394,6.44-57.584,57.1-66.782,65.489-4.145,3.777-7.307,6.445-10.267,8.066a19.256,19.256,0,0,1-9.248,2.324c-6.15.214-47.483.513-60.659.6C.184,85.847.082,56.286,0,35.217ZM85.53,95.195l-.049.045Zm.071-.066-.019.017Zm1.063-1.017-.007.007Zm.076-.075-.016.016Zm.124-.122c3.112-3.085,19.987-20.2,36.307-36.742l2.406-2.439c-16.743,16.976-35.446,35.943-38.712,39.18l-.068.067Zm65.564-66.366,0,0Zm.091-.092-.006.006Zm.239-.239-.057.057ZM160.7,0h0a64.318,64.318,0,0,1-1.685,14.05A64.8,64.8,0,0,0,160.7,0Z" transform="translate(0 0.026)" fill="#8cc5cc"/>
    <path id="Intersection_23" data-name="Intersection 23" d="M23.6,42.973,0,42.951V34.345L34.344,0l32.62,32.62L56.67,42.973Z" transform="translate(31.186 180.605)" fill="#6ca1ac"/>
    <path id="Path_39930" data-name="Path 39930" d="M.209-.152,42.95-.162,21.559,21.192Z" transform="translate(279.328 0.162)" fill="#ffe1a9"/>
    <g id="Group_13392" data-name="Group 13392" transform="translate(3 2)">
      <g id="Ellipse_1029" data-name="Ellipse 1029" transform="translate(115 33.088)" fill="#cfdaff" stroke="#77a1ff" stroke-width="4" opacity="0.6">
        <ellipse cx="75.5" cy="76.5" rx="75.5" ry="76.5" stroke="none"/>
        <ellipse cx="75.5" cy="76.5" rx="73.5" ry="74.5" fill="none"/>
      </g>
      <g id="Group_12739" data-name="Group 12739" transform="translate(170.831 65.567)">
        <g id="Group_5087" data-name="Group 5087" transform="translate(0 0)">
          <g id="Group_4069" data-name="Group 4069" transform="translate(0 0)">
            <g id="Group_4068" data-name="Group 4068">
              <g id="Group_4061" data-name="Group 4061">
                <path id="Union_4" data-name="Union 4" d="M18.863,42.152a1.375,1.375,0,0,1-.633-.309,9.7,9.7,0,0,0-3.584-3.791,19.308,19.308,0,1,1,10.023-.186,23.106,23.106,0,0,0-3.863,3.787c-.012.042-.017.063-.017.063a1.435,1.435,0,0,1-1.214.6A1.616,1.616,0,0,1,18.863,42.152Z" fill="#1477fb"/>
              </g>
            </g>
            <g id="map-pin" transform="translate(10.327 9.2)">
              <rect id="bounds" width="18.62" height="18.62" fill="rgba(28,143,248,0.34)" opacity="0"/>
              <g id="Group_4032" data-name="Group 4032" transform="translate(3.067 2.136)">
                <path id="Shape" d="M12.267,6.273c0,4.879-6.134,9.061-6.134,9.061S0,11.152,0,6.273A6.2,6.2,0,0,1,6.134,0,6.2,6.2,0,0,1,12.267,6.273Z" transform="translate(0 0)" fill="#fff" stroke="#fff" stroke-linecap="round" stroke-linejoin="round" stroke-width="2" fill-rule="evenodd"/>
                <ellipse id="Oval" cx="2.045" cy="2.091" rx="2.045" ry="2.091" transform="translate(4.089 4.182)" fill="#1477fb"/>
              </g>
            </g>
          </g>
          <circle id="Ellipse_486" data-name="Ellipse 486" cx="5.07" cy="5.07" r="5.07" transform="translate(13.87 44.654)" fill="#1f72fb"/>
        </g>
      </g>
      <g id="Group_12738" data-name="Group 12738" transform="translate(213.404 43.709)">
        <rect id="Rectangle_2888" data-name="Rectangle 2888" width="84.904" height="27.498" transform="translate(0 0)" fill="#fff"/>
        <rect id="Rectangle_2889" data-name="Rectangle 2889" width="28.521" height="27.498" transform="translate(0 0)"/>
        <circle id="Ellipse_971" data-name="Ellipse 971" cx="4.5" cy="4.5" r="4.5" transform="translate(8.596 9.378)" fill="#fff" opacity="0.7"/>
        <rect id="Rectangle_3790" data-name="Rectangle 3790" width="30" height="8" transform="translate(37.596 10.378)" fill="#aeaeb2" opacity="0.3"/>
      </g>
    </g>
    <path id="Subtraction_76" data-name="Subtraction 76" d="M55.916,111.834v0h0L0,55.916,55.916,0V111.832h0Z" transform="translate(319.084 39.86)" fill="#d1d1d6"/>
  </g>
</svg>
