<svg xmlns="http://www.w3.org/2000/svg" width="375.551" height="184" viewBox="0 0 375.551 184">
  <g id="Group_13406" data-name="Group 13406" transform="translate(-9288.504 -7213)">
    <path id="Path_40016" data-name="Path 40016" d="M0,0S92.427,63.842,287.742,63.164s0,62.4,0,62.4H0Z" transform="translate(9288.507 7235.605)" fill="#c3dee2" opacity="0.5"/>
    <rect id="Rectangle_4187" data-name="Rectangle 4187" width="146" height="43" transform="translate(9518.055 7354)" fill="#fff"/>
    <g id="Group_13401" data-name="Group 13401" transform="translate(9355.412 7262.364)">
      <rect id="Rectangle_3860" data-name="Rectangle 3860" width="29.465" height="54.518" transform="translate(0 17.842)" fill="#f2f2f7"/>
      <rect id="Rectangle_3861" data-name="Rectangle 3861" width="11.469" height="29.143" transform="translate(58.929 61.854)" fill="#e5e5ea"/>
      <rect id="Rectangle_3862" data-name="Rectangle 3862" width="29.465" height="91.789" transform="translate(29.465)" fill="#f2f2f7"/>
      <rect id="Rectangle_3863" data-name="Rectangle 3863" width="24.521" height="69.585" transform="translate(70.399 22.204)" fill="#f2f2f7"/>
      <rect id="Rectangle_3864" data-name="Rectangle 3864" width="11.469" height="29.936" transform="translate(94.92 61.854)" fill="#f2f2f7"/>
    </g>
    <g id="Group_13402" data-name="Group 13402" transform="translate(9288.562 7213)">
      <rect id="Rectangle_3856" data-name="Rectangle 3856" width="16.611" height="121.725" fill="#6ca1ac"/>
      <rect id="Rectangle_3857" data-name="Rectangle 3857" width="12.26" height="108.838" transform="translate(16.413 12.886)" fill="#6ca1ac"/>
    </g>
    <g id="Group_13403" data-name="Group 13403" transform="translate(9317.038 7257.408)">
      <rect id="Rectangle_3859" data-name="Rectangle 3859" width="29.465" height="32.909" transform="translate(12.063 44.408)" fill="#8cc5cc"/>
      <path id="Rectangle_3858" data-name="Rectangle 3858" d="M0,0H0A12.26,12.26,0,0,1,12.26,12.26V77.317a0,0,0,0,1,0,0H0a0,0,0,0,1,0,0V0A0,0,0,0,1,0,0Z" fill="#8cc5cc"/>
    </g>
    <path id="Path_40015" data-name="Path 40015" d="M0,0C111.584,5.11,111.588,32.4,188.019,32.732c42.866.188,51.034,0,51.034,0v52.28H0S.13,16.4,0,0Z" transform="translate(9288.504 7311.736)" fill="#fff"/>
    <g id="Group_13404" data-name="Group 13404" transform="translate(9501.652 7226.547)">
      <path id="Path_39808" data-name="Path 39808" d="M104.969-.156c21.017-.068,56.791,0,56.791,0V49.187H0S65.977-.03,104.969-.156Z" transform="translate(0.095 0.186)" fill="#b095ff"/>
      <g id="Group_12713" data-name="Group 12713" transform="translate(58.036 32.918)">
        <rect id="Rectangle_3865" data-name="Rectangle 3865" width="2.373" height="21.014" transform="translate(11.074 0)"/>
        <path id="Path_39811" data-name="Path 39811" d="M0-.647A8.82,8.82,0,0,0,3.745.183C5.885.176,6.872-.459,8.562-.675a8.247,8.247,0,0,1,2.71.028v8.16a8.149,8.149,0,0,0-2.71,0c-1.69.237-2.677.911-4.817.911A8.316,8.316,0,0,1,0,7.514Z" transform="translate(0 1.009)"/>
      </g>
      <g id="Group_12714" data-name="Group 12714" transform="translate(117.163 32.918)">
        <rect id="Rectangle_3865-2" data-name="Rectangle 3865" width="2.373" height="21.014" transform="translate(11.074 0)"/>
        <path id="Path_39811-2" data-name="Path 39811" d="M0-.647A8.82,8.82,0,0,0,3.745.183C5.885.176,6.872-.459,8.562-.675a8.247,8.247,0,0,1,2.71.028v8.16a8.149,8.149,0,0,0-2.71,0c-1.69.237-2.677.911-4.817.911A8.316,8.316,0,0,1,0,7.514Z" transform="translate(0 1.009)"/>
      </g>
      <path id="Path_39807" data-name="Path 39807" d="M0,0H161.855V90.2H21.948Z" transform="translate(0 49.373)" fill="#fff"/>
      <g id="Group_12712" data-name="Group 12712" transform="translate(47.357 113.209)">
        <path id="Rectangle_3668" data-name="Rectangle 3668" d="M14.04,0h0A14.04,14.04,0,0,1,28.08,14.04V25.905a0,0,0,0,1,0,0H0a0,0,0,0,1,0,0V14.04A14.04,14.04,0,0,1,14.04,0Z" transform="translate(0 0)" fill="#b192ff"/>
        <path id="Rectangle_3669" data-name="Rectangle 3669" d="M14.139,0h0A14.139,14.139,0,0,1,28.278,14.139V25.905a0,0,0,0,1,0,0H0a0,0,0,0,1,0,0V14.139A14.139,14.139,0,0,1,14.139,0Z" transform="translate(32.431 0)" fill="#b192ff"/>
        <path id="Rectangle_3670" data-name="Rectangle 3670" d="M14.139,0h0A14.139,14.139,0,0,1,28.278,14.139V25.905a0,0,0,0,1,0,0H0a0,0,0,0,1,0,0V14.139A14.139,14.139,0,0,1,14.139,0Z" transform="translate(64.862 0)" fill="#b192ff"/>
        <path id="Subtraction_48" data-name="Subtraction 48" d="M17.2,25.906H0V14.139A14.139,14.139,0,0,1,14.139,0,14.23,14.23,0,0,1,17.2.333V25.9Z" transform="translate(97.293 0)" fill="#b192ff"/>
      </g>
      <path id="Path_39809" data-name="Path 39809" d="M0,0H150.145V3.965H.98Z" transform="translate(11.709 97.349)" fill="#eddfff"/>
      <path id="Path_39810" data-name="Path 39810" d="M0,0H156.289V3.965H1.02Z" transform="translate(5.565 72.172)" fill="#eddfff"/>
      <path id="Rectangle_3866" data-name="Rectangle 3866" d="M0,0H27.289a0,0,0,0,1,0,0V14.274a0,0,0,0,1,0,0H14.274A14.274,14.274,0,0,1,0,0V0A0,0,0,0,1,0,0Z" transform="translate(134.565 0.009)" fill="#f2f2f7"/>
    </g>
  </g>
</svg>
