<svg xmlns="http://www.w3.org/2000/svg" xmlns:xlink="http://www.w3.org/1999/xlink" width="451" height="444.137" viewBox="0 0 451 444.137">
  <defs>
    <linearGradient id="linear-gradient" x1="0.5" x2="0.5" y2="1" gradientUnits="objectBoundingBox">
      <stop offset="0" stop-color="#e2fbff"/>
      <stop offset="1" stop-color="#ffe2cf"/>
    </linearGradient>
    <clipPath id="clip-path">
      <rect id="Mask" width="450" height="443.137" rx="221.569" fill="rgba(53,59,80,0.99)" stroke="rgba(53,59,80,0)" stroke-miterlimit="10" stroke-width="1"/>
    </clipPath>
    <clipPath id="clip-path-2">
      <path id="Combined_Shape" data-name="Combined Shape" d="M46.792,199.088v.614q-.254,19.487-32.855,29.306c26.189,19,52.377,34.2,78.566,34.2s52.377-15.2,78.566-34.2q-32.38-9.829-32.848-29.346c.006-2.32.017-5.613.033-11.8q0-1.473.008-3.017c1.561.22,1.434.08,0-.316.042-16.269.112-38.148.21-60.381,20.473-26.468,12.952-57.5,6.536-56.725C137.137,68.374,68.994,3.877,55.924.577S9.652,7.939,3.938,37.682s-8.1,104.712,13.57,134.643q9.251,12.776,29.137,9.994c.018,6.225.055,9.718.147,16.769Z" transform="translate(171.069 263.204) rotate(180)" fill="url(#linear-gradient)"/>
    </clipPath>
  </defs>
  <g id="Group_4" data-name="Group 4" transform="translate(0.269 0.5)">
    <g id="Group_30" data-name="Group 30" transform="translate(0.231 0)">
      <g id="Group_21_Copy" data-name="Group 21 Copy">
        <g id="Group_2" data-name="Group 2">
          <g id="Path_7" data-name="Path 7">
            <rect id="Mask-2" data-name="Mask" width="450" height="443.137" rx="221.569" fill="#42436a" stroke="rgba(53,59,80,0)" stroke-miterlimit="10" stroke-width="1"/>
            <g id="Path_7-2" data-name="Path 7" clip-path="url(#clip-path)">
              <g id="User_07a" data-name="User 07a" transform="translate(54.193 78.052)">
                <g id="Group_10" data-name="Group 10" transform="translate(55.556 0)">
                  <g id="Group_11" data-name="Group 11" transform="translate(0)">
                    <g id="Group_11-2" data-name="Group 11" transform="translate(200.713 285.523) rotate(180)">
                      <g id="Group_2-2" data-name="Group 2" transform="translate(0)">
                        <g id="Group_14" data-name="Group 14">
                          <g id="Path_48" data-name="Path 48" transform="translate(6.707 0)">
                            <path id="Combined_Shape-2" data-name="Combined Shape" d="M46.792,199.088v.614q-.254,19.487-32.855,29.306c26.189,19,52.377,34.2,78.566,34.2s52.377-15.2,78.566-34.2q-32.38-9.829-32.848-29.346c.006-2.32.017-5.613.033-11.8q0-1.473.008-3.017c1.561.22,1.434.08,0-.316.042-16.269.112-38.148.21-60.381,20.473-26.468,12.952-57.5,6.536-56.725C137.137,68.374,68.994,3.877,55.924.577S9.652,7.939,3.938,37.682s-8.1,104.712,13.57,134.643q9.251,12.776,29.137,9.994c.018,6.225.055,9.718.147,16.769Z" transform="translate(171.069 263.204) rotate(180)" fill="#c88a83"/>
                            <g id="Path_48-2" data-name="Path 48" transform="translate(0)" clip-path="url(#clip-path-2)">
                              <path id="Path_48-3" data-name="Path 48" d="M0,17.1C31.426,13.536,51.425,0,51.425,0S29.8,28.662,0,34.2Z" transform="translate(124.277 98.003) rotate(180)" opacity="0.228"/>
                            </g>
                          </g>
                          <path id="hair" d="M24.835,108.253c-2.535,2.512-3.918,6.1-5.115,9.5a96.125,96.125,0,0,0-3.274,10.793c-1.648,7.356-1.664,15.816,3.584,21.529,4.209,4.581,10.524,6.635,16.352,7.082a30.048,30.048,0,0,0,11.594-1.47c3.693-1.214,6.877-3.633,10.457-5.135.137,7.928,1.495,16.223,5.517,22.992a22.922,22.922,0,0,0,17.068,11.135,33.843,33.843,0,0,0,20.792-4.187c1.617-.874,3.218-1.791,4.751-2.827a13.315,13.315,0,0,1,4.123-2.267c1.679-.394,2.511.575,3.6,1.8a27.368,27.368,0,0,0,4.245,3.822c6.743,4.957,15.591,6.995,23.4,4.024a21.747,21.747,0,0,0,9.542-6.9c2.177-2.855,3.73-7.385,6.734-9.375,1.275-.845,2.175.274,3.336,1.1,1.744,1.243,3.407,2.614,5.171,3.822a23.684,23.684,0,0,0,8.036,3.633c4.207.973,10.022.745,11.224-4.765a22.745,22.745,0,0,0-.041-6.369c-.2-2.864-.409-5.726-.658-8.586a61.987,61.987,0,0,0-.837-6.4c-.219-1.136-.9-3.255-.415-4.393.609-1.423,3.42-.614,4.621-.663a18.258,18.258,0,0,0,6.947-1.527,7.475,7.475,0,0,0,4.2-3.889,6.986,6.986,0,0,0,.117-3.657,10.908,10.908,0,0,1,.222-3.752c3.186,1.569,14.225,5.054,15.614-.655.462-1.9-.591-4.049-1.394-5.652a48.99,48.99,0,0,0-5.145-7.833,70.03,70.03,0,0,0-13.7-13.295,8.981,8.981,0,0,0,2.343-15.043c-2.267-2.045-5.314-2.5-8.173-2.37a18.068,18.068,0,0,1-3.378.268,8.078,8.078,0,0,0-1.531-.516c-4.035-.276-8.589.7-12.534,1.591a41.328,41.328,0,0,0-19.115,10,5.894,5.894,0,0,1-4.421,2.03c-1.644-.017-3.257-.467-4.9-.509-4.346-.111-8.264,2.014-12.3,3.428a46.408,46.408,0,0,0-4.03-16.36c-1.819-4-5.616-4.581-9.348-4.932-11.933-1.123-23.908.13-35.857.114,11.566-2.614,23.518-3.692,34.981-6.768,5.182-1.39,1.225-4.883-.991-7.3a42.093,42.093,0,0,1-8.242-14.13c-5.658,7.375-15.659,12.235-24.519,9.969-9.79-2.5-16.683-15.742-10.423-25.26,3.634-5.525,10.2-7.658,15.659-10.032-4.26-4.429-5.291-10.971-7.855-16.482-1.265-2.718-3.04-5.79-5.868-6.737-1.046-.351-2.273-.38-3.1-1.233-1.023-1.056-1.266-2.237-2.572-3.144C64.125-1.152,55.985-.873,51.366,3.855c-4.177,4.276-3.09,11.042.4,15.377C46.212,21.546,36.1,24.523,38.3,33.174c-12.032.8-41.247,20.314-25.1,34.573C4.342,72.756-3.8,85,1.892,95.789c4.384,8.309,14.579,12.024,22.943,12.464" transform="translate(-26.365 134.921) rotate(-4)" fill="#2c2c2e" fill-rule="evenodd"/>
                        </g>
                      </g>
                    </g>
                  </g>
                </g>
                <g id="Group_21" data-name="Group 21" transform="translate(0 243.868)">
                  <path id="Combined_Shape-3" data-name="Combined Shape" d="M320.264,53.059c13.551,27.529,21.351,91.02,21.351,91.02H0s7.8-63.5,21.351-91.02S114.013.01,114.013.01C129.262,31.295,212.951,31.292,227.559,0,227.559,0,306.713,25.53,320.264,53.059Z" fill="#b095ff"/>
                </g>
              </g>
            </g>
          </g>
        </g>
      </g>
    </g>
  </g>
</svg>
